<?xml version="1.0" encoding="utf-8" standalone="no"?>
<!DOCTYPE svg PUBLIC "-//W3C//DTD SVG 1.1//EN"
  "http://www.w3.org/Graphics/SVG/1.1/DTD/svg11.dtd">
<!-- Created with matplotlib (https://matplotlib.org/) -->
<svg height="576pt" version="1.1" viewBox="0 0 576 576" width="576pt" xmlns="http://www.w3.org/2000/svg" xmlns:xlink="http://www.w3.org/1999/xlink">
 <metadata>
  <rdf:RDF xmlns:cc="http://creativecommons.org/ns#" xmlns:dc="http://purl.org/dc/elements/1.1/" xmlns:rdf="http://www.w3.org/1999/02/22-rdf-syntax-ns#">
   <cc:Work>
    <dc:type rdf:resource="http://purl.org/dc/dcmitype/StillImage"/>
    <dc:date>2020-10-07T22:15:56.461086</dc:date>
    <dc:format>image/svg+xml</dc:format>
    <dc:creator>
     <cc:Agent>
      <dc:title>Matplotlib v3.3.2, https://matplotlib.org/</dc:title>
     </cc:Agent>
    </dc:creator>
   </cc:Work>
  </rdf:RDF>
 </metadata>
 <defs>
  <style type="text/css">*{stroke-linecap:butt;stroke-linejoin:round;}</style>
 </defs>
 <g id="figure_1">
  <g id="patch_1">
   <path d="M 0 576 
L 576 576 
L 576 0 
L 0 0 
z
" style="fill:#ffffff;"/>
  </g>
  <g id="axes_1">
   <g id="patch_2">
    <path d="M 72 504 
L 518.4 504 
L 518.4 69.12 
L 72 69.12 
z
" style="fill:#ffffff;"/>
   </g>
   <g id="matplotlib.axis_1">
    <g id="xtick_1">
     <g id="line2d_1">
      <path clip-path="url(#p3ac81e92d9)" d="M 92.290909 504 
L 92.290909 69.12 
" style="fill:none;stroke:#cccccc;stroke-linecap:round;"/>
     </g>
     <g id="text_1">
      <!-- 1 -->
      <g style="fill:#262626;" transform="translate(89.232393 521.373594)scale(0.11 -0.11)">
       <defs>
        <path d="M 37.25 0 
L 28.46875 0 
L 28.46875 56 
Q 25.296875 52.984375 20.140625 49.953125 
Q 14.984375 46.921875 10.890625 45.40625 
L 10.890625 53.90625 
Q 18.265625 57.375 23.78125 62.296875 
Q 29.296875 67.234375 31.59375 71.875 
L 37.25 71.875 
z
" id="ArialMT-49"/>
       </defs>
       <use xlink:href="#ArialMT-49"/>
      </g>
     </g>
    </g>
    <g id="xtick_2">
     <g id="line2d_2">
      <path clip-path="url(#p3ac81e92d9)" d="M 159.927273 504 
L 159.927273 69.12 
" style="fill:none;stroke:#cccccc;stroke-linecap:round;"/>
     </g>
     <g id="text_2">
      <!-- 2 -->
      <g style="fill:#262626;" transform="translate(156.868757 521.373594)scale(0.11 -0.11)">
       <defs>
        <path d="M 50.34375 8.453125 
L 50.34375 0 
L 3.03125 0 
Q 2.9375 3.171875 4.046875 6.109375 
Q 5.859375 10.9375 9.828125 15.625 
Q 13.8125 20.3125 21.34375 26.46875 
Q 33.015625 36.03125 37.109375 41.625 
Q 41.21875 47.21875 41.21875 52.203125 
Q 41.21875 57.421875 37.46875 61 
Q 33.734375 64.59375 27.734375 64.59375 
Q 21.390625 64.59375 17.578125 60.78125 
Q 13.765625 56.984375 13.71875 50.25 
L 4.6875 51.171875 
Q 5.609375 61.28125 11.65625 66.578125 
Q 17.71875 71.875 27.9375 71.875 
Q 38.234375 71.875 44.234375 66.15625 
Q 50.25 60.453125 50.25 52 
Q 50.25 47.703125 48.484375 43.546875 
Q 46.734375 39.40625 42.65625 34.8125 
Q 38.578125 30.21875 29.109375 22.21875 
Q 21.1875 15.578125 18.9375 13.203125 
Q 16.703125 10.84375 15.234375 8.453125 
z
" id="ArialMT-50"/>
       </defs>
       <use xlink:href="#ArialMT-50"/>
      </g>
     </g>
    </g>
    <g id="xtick_3">
     <g id="line2d_3">
      <path clip-path="url(#p3ac81e92d9)" d="M 227.563636 504 
L 227.563636 69.12 
" style="fill:none;stroke:#cccccc;stroke-linecap:round;"/>
     </g>
     <g id="text_3">
      <!-- 3 -->
      <g style="fill:#262626;" transform="translate(224.505121 521.373594)scale(0.11 -0.11)">
       <defs>
        <path d="M 4.203125 18.890625 
L 12.984375 20.0625 
Q 14.5 12.59375 18.140625 9.296875 
Q 21.78125 6 27 6 
Q 33.203125 6 37.46875 10.296875 
Q 41.75 14.59375 41.75 20.953125 
Q 41.75 27 37.796875 30.921875 
Q 33.84375 34.859375 27.734375 34.859375 
Q 25.25 34.859375 21.53125 33.890625 
L 22.515625 41.609375 
Q 23.390625 41.5 23.921875 41.5 
Q 29.546875 41.5 34.03125 44.421875 
Q 38.53125 47.359375 38.53125 53.46875 
Q 38.53125 58.296875 35.25 61.46875 
Q 31.984375 64.65625 26.8125 64.65625 
Q 21.6875 64.65625 18.265625 61.421875 
Q 14.84375 58.203125 13.875 51.765625 
L 5.078125 53.328125 
Q 6.6875 62.15625 12.390625 67.015625 
Q 18.109375 71.875 26.609375 71.875 
Q 32.46875 71.875 37.390625 69.359375 
Q 42.328125 66.84375 44.9375 62.5 
Q 47.5625 58.15625 47.5625 53.265625 
Q 47.5625 48.640625 45.0625 44.828125 
Q 42.578125 41.015625 37.703125 38.765625 
Q 44.046875 37.3125 47.5625 32.6875 
Q 51.078125 28.078125 51.078125 21.140625 
Q 51.078125 11.765625 44.234375 5.25 
Q 37.40625 -1.265625 26.953125 -1.265625 
Q 17.53125 -1.265625 11.296875 4.34375 
Q 5.078125 9.96875 4.203125 18.890625 
z
" id="ArialMT-51"/>
       </defs>
       <use xlink:href="#ArialMT-51"/>
      </g>
     </g>
    </g>
    <g id="xtick_4">
     <g id="line2d_4">
      <path clip-path="url(#p3ac81e92d9)" d="M 295.2 504 
L 295.2 69.12 
" style="fill:none;stroke:#cccccc;stroke-linecap:round;"/>
     </g>
     <g id="text_4">
      <!-- 4 -->
      <g style="fill:#262626;" transform="translate(292.141484 521.373594)scale(0.11 -0.11)">
       <defs>
        <path d="M 32.328125 0 
L 32.328125 17.140625 
L 1.265625 17.140625 
L 1.265625 25.203125 
L 33.9375 71.578125 
L 41.109375 71.578125 
L 41.109375 25.203125 
L 50.78125 25.203125 
L 50.78125 17.140625 
L 41.109375 17.140625 
L 41.109375 0 
z
M 32.328125 25.203125 
L 32.328125 57.46875 
L 9.90625 25.203125 
z
" id="ArialMT-52"/>
       </defs>
       <use xlink:href="#ArialMT-52"/>
      </g>
     </g>
    </g>
    <g id="xtick_5">
     <g id="line2d_5">
      <path clip-path="url(#p3ac81e92d9)" d="M 362.836364 504 
L 362.836364 69.12 
" style="fill:none;stroke:#cccccc;stroke-linecap:round;"/>
     </g>
     <g id="text_5">
      <!-- 5 -->
      <g style="fill:#262626;" transform="translate(359.777848 521.373594)scale(0.11 -0.11)">
       <defs>
        <path d="M 4.15625 18.75 
L 13.375 19.53125 
Q 14.40625 12.796875 18.140625 9.390625 
Q 21.875 6 27.15625 6 
Q 33.5 6 37.890625 10.78125 
Q 42.28125 15.578125 42.28125 23.484375 
Q 42.28125 31 38.0625 35.34375 
Q 33.84375 39.703125 27 39.703125 
Q 22.75 39.703125 19.328125 37.765625 
Q 15.921875 35.84375 13.96875 32.765625 
L 5.71875 33.84375 
L 12.640625 70.609375 
L 48.25 70.609375 
L 48.25 62.203125 
L 19.671875 62.203125 
L 15.828125 42.96875 
Q 22.265625 47.46875 29.34375 47.46875 
Q 38.71875 47.46875 45.15625 40.96875 
Q 51.609375 34.46875 51.609375 24.265625 
Q 51.609375 14.546875 45.953125 7.46875 
Q 39.0625 -1.21875 27.15625 -1.21875 
Q 17.390625 -1.21875 11.203125 4.25 
Q 5.03125 9.71875 4.15625 18.75 
z
" id="ArialMT-53"/>
       </defs>
       <use xlink:href="#ArialMT-53"/>
      </g>
     </g>
    </g>
    <g id="xtick_6">
     <g id="line2d_6">
      <path clip-path="url(#p3ac81e92d9)" d="M 430.472727 504 
L 430.472727 69.12 
" style="fill:none;stroke:#cccccc;stroke-linecap:round;"/>
     </g>
     <g id="text_6">
      <!-- 6 -->
      <g style="fill:#262626;" transform="translate(427.414212 521.373594)scale(0.11 -0.11)">
       <defs>
        <path d="M 49.75 54.046875 
L 41.015625 53.375 
Q 39.84375 58.546875 37.703125 60.890625 
Q 34.125 64.65625 28.90625 64.65625 
Q 24.703125 64.65625 21.53125 62.3125 
Q 17.390625 59.28125 14.984375 53.46875 
Q 12.59375 47.65625 12.5 36.921875 
Q 15.671875 41.75 20.265625 44.09375 
Q 24.859375 46.4375 29.890625 46.4375 
Q 38.671875 46.4375 44.84375 39.96875 
Q 51.03125 33.5 51.03125 23.25 
Q 51.03125 16.5 48.125 10.71875 
Q 45.21875 4.9375 40.140625 1.859375 
Q 35.0625 -1.21875 28.609375 -1.21875 
Q 17.625 -1.21875 10.6875 6.859375 
Q 3.765625 14.9375 3.765625 33.5 
Q 3.765625 54.25 11.421875 63.671875 
Q 18.109375 71.875 29.4375 71.875 
Q 37.890625 71.875 43.28125 67.140625 
Q 48.6875 62.40625 49.75 54.046875 
z
M 13.875 23.1875 
Q 13.875 18.65625 15.796875 14.5 
Q 17.71875 10.359375 21.1875 8.171875 
Q 24.65625 6 28.46875 6 
Q 34.03125 6 38.03125 10.484375 
Q 42.046875 14.984375 42.046875 22.703125 
Q 42.046875 30.125 38.078125 34.390625 
Q 34.125 38.671875 28.125 38.671875 
Q 22.171875 38.671875 18.015625 34.390625 
Q 13.875 30.125 13.875 23.1875 
z
" id="ArialMT-54"/>
       </defs>
       <use xlink:href="#ArialMT-54"/>
      </g>
     </g>
    </g>
    <g id="xtick_7">
     <g id="line2d_7">
      <path clip-path="url(#p3ac81e92d9)" d="M 498.109091 504 
L 498.109091 69.12 
" style="fill:none;stroke:#cccccc;stroke-linecap:round;"/>
     </g>
     <g id="text_7">
      <!-- 7 -->
      <g style="fill:#262626;" transform="translate(495.050575 521.373594)scale(0.11 -0.11)">
       <defs>
        <path d="M 4.734375 62.203125 
L 4.734375 70.65625 
L 51.078125 70.65625 
L 51.078125 63.8125 
Q 44.234375 56.546875 37.515625 44.484375 
Q 30.8125 32.421875 27.15625 19.671875 
Q 24.515625 10.6875 23.78125 0 
L 14.75 0 
Q 14.890625 8.453125 18.0625 20.40625 
Q 21.234375 32.375 27.171875 43.484375 
Q 33.109375 54.59375 39.796875 62.203125 
z
" id="ArialMT-55"/>
       </defs>
       <use xlink:href="#ArialMT-55"/>
      </g>
     </g>
    </g>
   </g>
   <g id="matplotlib.axis_2">
    <g id="ytick_1">
     <g id="line2d_8">
      <path clip-path="url(#p3ac81e92d9)" d="M 72 490.616169 
L 518.4 490.616169 
" style="fill:none;stroke:#cccccc;stroke-linecap:round;"/>
     </g>
     <g id="text_8">
      <!-- −0.75 -->
      <g style="fill:#262626;" transform="translate(34.668281 494.552966)scale(0.11 -0.11)">
       <defs>
        <path d="M 52.828125 31.203125 
L 5.5625 31.203125 
L 5.5625 39.40625 
L 52.828125 39.40625 
z
" id="ArialMT-8722"/>
        <path d="M 4.15625 35.296875 
Q 4.15625 48 6.765625 55.734375 
Q 9.375 63.484375 14.515625 67.671875 
Q 19.671875 71.875 27.484375 71.875 
Q 33.25 71.875 37.59375 69.546875 
Q 41.9375 67.234375 44.765625 62.859375 
Q 47.609375 58.5 49.21875 52.21875 
Q 50.828125 45.953125 50.828125 35.296875 
Q 50.828125 22.703125 48.234375 14.96875 
Q 45.65625 7.234375 40.5 3 
Q 35.359375 -1.21875 27.484375 -1.21875 
Q 17.140625 -1.21875 11.234375 6.203125 
Q 4.15625 15.140625 4.15625 35.296875 
z
M 13.1875 35.296875 
Q 13.1875 17.671875 17.3125 11.828125 
Q 21.4375 6 27.484375 6 
Q 33.546875 6 37.671875 11.859375 
Q 41.796875 17.71875 41.796875 35.296875 
Q 41.796875 52.984375 37.671875 58.78125 
Q 33.546875 64.59375 27.390625 64.59375 
Q 21.34375 64.59375 17.71875 59.46875 
Q 13.1875 52.9375 13.1875 35.296875 
z
" id="ArialMT-48"/>
        <path d="M 9.078125 0 
L 9.078125 10.015625 
L 19.09375 10.015625 
L 19.09375 0 
z
" id="ArialMT-46"/>
       </defs>
       <use xlink:href="#ArialMT-8722"/>
       <use x="58.398438" xlink:href="#ArialMT-48"/>
       <use x="114.013672" xlink:href="#ArialMT-46"/>
       <use x="141.796875" xlink:href="#ArialMT-55"/>
       <use x="197.412109" xlink:href="#ArialMT-53"/>
      </g>
     </g>
    </g>
    <g id="ytick_2">
     <g id="line2d_9">
      <path clip-path="url(#p3ac81e92d9)" d="M 72 435.441732 
L 518.4 435.441732 
" style="fill:none;stroke:#cccccc;stroke-linecap:round;"/>
     </g>
     <g id="text_9">
      <!-- −0.50 -->
      <g style="fill:#262626;" transform="translate(34.668281 439.378529)scale(0.11 -0.11)">
       <use xlink:href="#ArialMT-8722"/>
       <use x="58.398438" xlink:href="#ArialMT-48"/>
       <use x="114.013672" xlink:href="#ArialMT-46"/>
       <use x="141.796875" xlink:href="#ArialMT-53"/>
       <use x="197.412109" xlink:href="#ArialMT-48"/>
      </g>
     </g>
    </g>
    <g id="ytick_3">
     <g id="line2d_10">
      <path clip-path="url(#p3ac81e92d9)" d="M 72 380.267295 
L 518.4 380.267295 
" style="fill:none;stroke:#cccccc;stroke-linecap:round;"/>
     </g>
     <g id="text_10">
      <!-- −0.25 -->
      <g style="fill:#262626;" transform="translate(34.668281 384.204092)scale(0.11 -0.11)">
       <use xlink:href="#ArialMT-8722"/>
       <use x="58.398438" xlink:href="#ArialMT-48"/>
       <use x="114.013672" xlink:href="#ArialMT-46"/>
       <use x="141.796875" xlink:href="#ArialMT-50"/>
       <use x="197.412109" xlink:href="#ArialMT-53"/>
      </g>
     </g>
    </g>
    <g id="ytick_4">
     <g id="line2d_11">
      <path clip-path="url(#p3ac81e92d9)" d="M 72 325.092858 
L 518.4 325.092858 
" style="fill:none;stroke:#cccccc;stroke-linecap:round;"/>
     </g>
     <g id="text_11">
      <!-- 0.00 -->
      <g style="fill:#262626;" transform="translate(41.092969 329.029655)scale(0.11 -0.11)">
       <use xlink:href="#ArialMT-48"/>
       <use x="55.615234" xlink:href="#ArialMT-46"/>
       <use x="83.398438" xlink:href="#ArialMT-48"/>
       <use x="139.013672" xlink:href="#ArialMT-48"/>
      </g>
     </g>
    </g>
    <g id="ytick_5">
     <g id="line2d_12">
      <path clip-path="url(#p3ac81e92d9)" d="M 72 269.918421 
L 518.4 269.918421 
" style="fill:none;stroke:#cccccc;stroke-linecap:round;"/>
     </g>
     <g id="text_12">
      <!-- 0.25 -->
      <g style="fill:#262626;" transform="translate(41.092969 273.855218)scale(0.11 -0.11)">
       <use xlink:href="#ArialMT-48"/>
       <use x="55.615234" xlink:href="#ArialMT-46"/>
       <use x="83.398438" xlink:href="#ArialMT-50"/>
       <use x="139.013672" xlink:href="#ArialMT-53"/>
      </g>
     </g>
    </g>
    <g id="ytick_6">
     <g id="line2d_13">
      <path clip-path="url(#p3ac81e92d9)" d="M 72 214.743984 
L 518.4 214.743984 
" style="fill:none;stroke:#cccccc;stroke-linecap:round;"/>
     </g>
     <g id="text_13">
      <!-- 0.50 -->
      <g style="fill:#262626;" transform="translate(41.092969 218.680781)scale(0.11 -0.11)">
       <use xlink:href="#ArialMT-48"/>
       <use x="55.615234" xlink:href="#ArialMT-46"/>
       <use x="83.398438" xlink:href="#ArialMT-53"/>
       <use x="139.013672" xlink:href="#ArialMT-48"/>
      </g>
     </g>
    </g>
    <g id="ytick_7">
     <g id="line2d_14">
      <path clip-path="url(#p3ac81e92d9)" d="M 72 159.569547 
L 518.4 159.569547 
" style="fill:none;stroke:#cccccc;stroke-linecap:round;"/>
     </g>
     <g id="text_14">
      <!-- 0.75 -->
      <g style="fill:#262626;" transform="translate(41.092969 163.506344)scale(0.11 -0.11)">
       <use xlink:href="#ArialMT-48"/>
       <use x="55.615234" xlink:href="#ArialMT-46"/>
       <use x="83.398438" xlink:href="#ArialMT-55"/>
       <use x="139.013672" xlink:href="#ArialMT-53"/>
      </g>
     </g>
    </g>
    <g id="ytick_8">
     <g id="line2d_15">
      <path clip-path="url(#p3ac81e92d9)" d="M 72 104.39511 
L 518.4 104.39511 
" style="fill:none;stroke:#cccccc;stroke-linecap:round;"/>
     </g>
     <g id="text_15">
      <!-- 1.00 -->
      <g style="fill:#262626;" transform="translate(41.092969 108.331907)scale(0.11 -0.11)">
       <use xlink:href="#ArialMT-49"/>
       <use x="55.615234" xlink:href="#ArialMT-46"/>
       <use x="83.398438" xlink:href="#ArialMT-48"/>
       <use x="139.013672" xlink:href="#ArialMT-48"/>
      </g>
     </g>
    </g>
   </g>
   <g id="line2d_16">
    <path clip-path="url(#p3ac81e92d9)" d="M 92.290909 325.092858 
L 159.927273 381.115981 
" style="fill:none;stroke:#1a1a1a;stroke-width:21.9;"/>
   </g>
   <g id="line2d_17">
    <path clip-path="url(#p3ac81e92d9)" d="M 92.290909 325.092858 
L 159.927273 225.344371 
" style="fill:none;stroke:#1a1a1a;stroke-width:12.3;"/>
   </g>
   <g id="line2d_18">
    <path clip-path="url(#p3ac81e92d9)" d="M 159.927273 381.115981 
L 227.563636 447.764317 
" style="fill:none;stroke:#1a1a1a;stroke-width:13.2;"/>
   </g>
   <g id="line2d_19">
    <path clip-path="url(#p3ac81e92d9)" d="M 159.927273 381.115981 
L 227.563636 279.994367 
" style="fill:none;stroke:#1a1a1a;stroke-width:8.7;"/>
   </g>
   <g id="line2d_20">
    <path clip-path="url(#p3ac81e92d9)" d="M 159.927273 225.344371 
L 227.563636 225.344371 
" style="fill:none;stroke:#1a1a1a;stroke-width:12.3;"/>
   </g>
   <g id="line2d_21">
    <path clip-path="url(#p3ac81e92d9)" d="M 227.563636 447.764317 
L 295.2 447.764317 
" style="fill:none;stroke:#1a1a1a;stroke-width:13.2;"/>
   </g>
   <g id="line2d_22">
    <path clip-path="url(#p3ac81e92d9)" d="M 227.563636 279.994367 
L 295.2 279.994367 
" style="fill:none;stroke:#1a1a1a;stroke-width:8.7;"/>
   </g>
   <g id="line2d_23">
    <path clip-path="url(#p3ac81e92d9)" d="M 227.563636 225.344371 
L 295.2 306.063842 
" style="fill:none;stroke:#1a1a1a;stroke-width:6.6;"/>
   </g>
   <g id="line2d_24">
    <path clip-path="url(#p3ac81e92d9)" d="M 227.563636 225.344371 
L 295.2 131.879721 
" style="fill:none;stroke:#1a1a1a;stroke-width:5.7;"/>
   </g>
   <g id="line2d_25">
    <path clip-path="url(#p3ac81e92d9)" d="M 295.2 447.764317 
L 362.836364 484.232727 
" style="fill:none;stroke:#1a1a1a;stroke-width:9.3;"/>
   </g>
   <g id="line2d_26">
    <path clip-path="url(#p3ac81e92d9)" d="M 295.2 447.764317 
L 362.836364 333.887888 
" style="fill:none;stroke:#1a1a1a;stroke-width:3.9;"/>
   </g>
   <g id="line2d_27">
    <path clip-path="url(#p3ac81e92d9)" d="M 295.2 306.063842 
L 362.836364 306.063842 
" style="fill:none;stroke:#1a1a1a;stroke-width:6.6;"/>
   </g>
   <g id="line2d_28">
    <path clip-path="url(#p3ac81e92d9)" d="M 295.2 279.994367 
L 362.836364 333.887888 
" style="fill:none;stroke:#1a1a1a;stroke-width:2.2;"/>
   </g>
   <g id="line2d_29">
    <path clip-path="url(#p3ac81e92d9)" d="M 295.2 279.994367 
L 362.836364 277.901461 
" style="fill:none;stroke:#1a1a1a;stroke-width:6.5;"/>
   </g>
   <g id="line2d_30">
    <path clip-path="url(#p3ac81e92d9)" d="M 295.2 131.879721 
L 362.836364 131.879721 
" style="fill:none;stroke:#1a1a1a;stroke-width:5.7;"/>
   </g>
   <g id="line2d_31">
    <path clip-path="url(#p3ac81e92d9)" d="M 362.836364 484.232727 
L 430.472727 483.173909 
" style="fill:none;stroke:#1a1a1a;stroke-width:9;"/>
   </g>
   <g id="line2d_32">
    <path clip-path="url(#p3ac81e92d9)" d="M 362.836364 484.232727 
L 430.472727 372.607389 
" style="fill:none;stroke:#1a1a1a;stroke-width:0.3;"/>
   </g>
   <g id="line2d_33">
    <path clip-path="url(#p3ac81e92d9)" d="M 362.836364 333.887888 
L 430.472727 483.173909 
" style="fill:none;stroke:#1a1a1a;stroke-width:0.2;"/>
   </g>
   <g id="line2d_34">
    <path clip-path="url(#p3ac81e92d9)" d="M 362.836364 333.887888 
L 430.472727 328.681237 
" style="fill:none;stroke:#1a1a1a;stroke-width:5.9;"/>
   </g>
   <g id="line2d_35">
    <path clip-path="url(#p3ac81e92d9)" d="M 362.836364 306.063842 
L 430.472727 302.214439 
" style="fill:none;stroke:#1a1a1a;stroke-width:6.6;"/>
   </g>
   <g id="line2d_36">
    <path clip-path="url(#p3ac81e92d9)" d="M 362.836364 277.901461 
L 430.472727 372.607389 
" style="fill:none;stroke:#1a1a1a;stroke-width:2.7;"/>
   </g>
   <g id="line2d_37">
    <path clip-path="url(#p3ac81e92d9)" d="M 362.836364 277.901461 
L 430.472727 328.681237 
" style="fill:none;stroke:#1a1a1a;stroke-width:0.3;"/>
   </g>
   <g id="line2d_38">
    <path clip-path="url(#p3ac81e92d9)" d="M 362.836364 277.901461 
L 430.472727 213.026907 
" style="fill:none;stroke:#1a1a1a;stroke-width:3.5;"/>
   </g>
   <g id="line2d_39">
    <path clip-path="url(#p3ac81e92d9)" d="M 362.836364 131.879721 
L 430.472727 302.214439 
" style="fill:none;stroke:#1a1a1a;stroke-width:0.3;"/>
   </g>
   <g id="line2d_40">
    <path clip-path="url(#p3ac81e92d9)" d="M 362.836364 131.879721 
L 430.472727 127.121507 
" style="fill:none;stroke:#1a1a1a;stroke-width:5.4;"/>
   </g>
   <g id="line2d_41">
    <path clip-path="url(#p3ac81e92d9)" d="M 430.472727 483.173909 
L 498.109091 484.232727 
" style="fill:none;stroke:#1a1a1a;stroke-width:9;"/>
   </g>
   <g id="line2d_42">
    <path clip-path="url(#p3ac81e92d9)" d="M 430.472727 483.173909 
L 498.109091 333.887888 
" style="fill:none;stroke:#1a1a1a;stroke-width:0.2;"/>
   </g>
   <g id="line2d_43">
    <path clip-path="url(#p3ac81e92d9)" d="M 430.472727 372.607389 
L 498.109091 484.232727 
" style="fill:none;stroke:#1a1a1a;stroke-width:0.3;"/>
   </g>
   <g id="line2d_44">
    <path clip-path="url(#p3ac81e92d9)" d="M 430.472727 372.607389 
L 498.109091 349.611207 
" style="fill:none;stroke:#1a1a1a;stroke-width:2.7;"/>
   </g>
   <g id="line2d_45">
    <path clip-path="url(#p3ac81e92d9)" d="M 430.472727 328.681237 
L 498.109091 349.611207 
" style="fill:none;stroke:#1a1a1a;stroke-width:0.3;"/>
   </g>
   <g id="line2d_46">
    <path clip-path="url(#p3ac81e92d9)" d="M 430.472727 328.681237 
L 498.109091 333.887888 
" style="fill:none;stroke:#1a1a1a;stroke-width:5.9;"/>
   </g>
   <g id="line2d_47">
    <path clip-path="url(#p3ac81e92d9)" d="M 430.472727 302.214439 
L 498.109091 324.788613 
" style="fill:none;stroke:#1a1a1a;stroke-width:5.2;"/>
   </g>
   <g id="line2d_48">
    <path clip-path="url(#p3ac81e92d9)" d="M 430.472727 302.214439 
L 498.109091 207.764995 
" style="fill:none;stroke:#1a1a1a;stroke-width:1.7;"/>
   </g>
   <g id="line2d_49">
    <path clip-path="url(#p3ac81e92d9)" d="M 430.472727 213.026907 
L 498.109091 349.611207 
" style="fill:none;stroke:#1a1a1a;stroke-width:0.2;"/>
   </g>
   <g id="line2d_50">
    <path clip-path="url(#p3ac81e92d9)" d="M 430.472727 213.026907 
L 498.109091 208.364738 
" style="fill:none;stroke:#1a1a1a;stroke-width:3.3;"/>
   </g>
   <g id="line2d_51">
    <path clip-path="url(#p3ac81e92d9)" d="M 430.472727 127.121507 
L 498.109091 207.764995 
" style="fill:none;stroke:#1a1a1a;stroke-width:2.1;"/>
   </g>
   <g id="line2d_52">
    <path clip-path="url(#p3ac81e92d9)" d="M 430.472727 127.121507 
L 498.109091 88.887273 
" style="fill:none;stroke:#1a1a1a;stroke-width:3.3;"/>
   </g>
   <g id="PathCollection_1">
    <defs>
     <path d="M 0 9.246621 
C 2.452233 9.246621 4.804358 8.272339 6.538348 6.538348 
C 8.272339 4.804358 9.246621 2.452233 9.246621 0 
C 9.246621 -2.452233 8.272339 -4.804358 6.538348 -6.538348 
C 4.804358 -8.272339 2.452233 -9.246621 0 -9.246621 
C -2.452233 -9.246621 -4.804358 -8.272339 -6.538348 -6.538348 
C -8.272339 -4.804358 -9.246621 -2.452233 -9.246621 0 
C -9.246621 2.452233 -8.272339 4.804358 -6.538348 6.538348 
C -4.804358 8.272339 -2.452233 9.246621 0 9.246621 
z
" id="mccda37b8f8" style="stroke:#ffffff;stroke-width:2;"/>
    </defs>
    <g clip-path="url(#p3ac81e92d9)">
     <use style="fill:#c44e52;stroke:#ffffff;stroke-width:2;" x="92.290909" xlink:href="#mccda37b8f8" y="325.092858"/>
    </g>
   </g>
   <g id="PathCollection_2">
    <path clip-path="url(#p3ac81e92d9)" d="M 159.927273 388.515305 
C 161.889596 388.515305 163.771813 387.735666 165.159385 386.348093 
C 166.546958 384.960521 167.326597 383.078305 167.326597 381.115981 
C 167.326597 379.153657 166.546958 377.271441 165.159385 375.883868 
C 163.771813 374.496296 161.889596 373.716656 159.927273 373.716656 
C 157.964949 373.716656 156.082733 374.496296 154.69516 375.883868 
C 153.307588 377.271441 152.527948 379.153657 152.527948 381.115981 
C 152.527948 383.078305 153.307588 384.960521 154.69516 386.348093 
C 156.082733 387.735666 157.964949 388.515305 159.927273 388.515305 
z
" style="fill:#c44e52;stroke:#ffffff;stroke-width:2;"/>
    <path clip-path="url(#p3ac81e92d9)" d="M 159.927273 230.88964 
C 161.397895 230.88964 162.808482 230.305355 163.84837 229.265468 
C 164.888257 228.225581 165.472541 226.814994 165.472541 225.344371 
C 165.472541 223.873749 164.888257 222.463162 163.84837 221.423275 
C 162.808482 220.383388 161.397895 219.799103 159.927273 219.799103 
C 158.45665 219.799103 157.046063 220.383388 156.006176 221.423275 
C 154.966289 222.463162 154.382004 223.873749 154.382004 225.344371 
C 154.382004 226.814994 154.966289 228.225581 156.006176 229.265468 
C 157.046063 230.305355 158.45665 230.88964 159.927273 230.88964 
z
" style="fill:#c44e52;stroke:#ffffff;stroke-width:2;"/>
   </g>
   <g id="PathCollection_3">
    <path clip-path="url(#p3ac81e92d9)" d="M 227.563636 453.50888 
C 229.087112 453.50888 230.548395 452.903596 231.625656 451.826336 
C 232.702916 450.749076 233.308199 449.287793 233.308199 447.764317 
C 233.308199 446.240841 232.702916 444.779558 231.625656 443.702298 
C 230.548395 442.625038 229.087112 442.019754 227.563636 442.019754 
C 226.040161 442.019754 224.578877 442.625038 223.501617 443.702298 
C 222.424357 444.779558 221.819074 446.240841 221.819074 447.764317 
C 221.819074 449.287793 222.424357 450.749076 223.501617 451.826336 
C 224.578877 452.903596 226.040161 453.50888 227.563636 453.50888 
z
" style="fill:#c44e52;stroke:#ffffff;stroke-width:2;"/>
    <path clip-path="url(#p3ac81e92d9)" d="M 227.563636 230.88964 
C 229.034259 230.88964 230.444846 230.305355 231.484733 229.265468 
C 232.52462 228.225581 233.108905 226.814994 233.108905 225.344371 
C 233.108905 223.873749 232.52462 222.463162 231.484733 221.423275 
C 230.444846 220.383388 229.034259 219.799103 227.563636 219.799103 
C 226.093014 219.799103 224.682427 220.383388 223.64254 221.423275 
C 222.602653 222.463162 222.018368 223.873749 222.018368 225.344371 
C 222.018368 226.814994 222.602653 228.225581 223.64254 229.265468 
C 224.682427 230.305355 226.093014 230.88964 227.563636 230.88964 
z
" style="fill:#c44e52;stroke:#ffffff;stroke-width:2;"/>
    <path clip-path="url(#p3ac81e92d9)" d="M 227.563636 284.658057 
C 228.800461 284.658057 229.986796 284.166661 230.861363 283.292094 
C 231.73593 282.417526 232.227326 281.231192 232.227326 279.994367 
C 232.227326 278.757542 231.73593 277.571208 230.861363 276.696641 
C 229.986796 275.822073 228.800461 275.330678 227.563636 275.330678 
C 226.326811 275.330678 225.140477 275.822073 224.26591 276.696641 
C 223.391343 277.571208 222.899947 278.757542 222.899947 279.994367 
C 222.899947 281.231192 223.391343 282.417526 224.26591 283.292094 
C 225.140477 284.166661 226.326811 284.658057 227.563636 284.658057 
z
" style="fill:#c44e52;stroke:#ffffff;stroke-width:2;"/>
   </g>
   <g id="PathCollection_4">
    <path clip-path="url(#p3ac81e92d9)" d="M 295.2 453.50888 
C 296.723476 453.50888 298.184759 452.903596 299.262019 451.826336 
C 300.339279 450.749076 300.944563 449.287793 300.944563 447.764317 
C 300.944563 446.240841 300.339279 444.779558 299.262019 443.702298 
C 298.184759 442.625038 296.723476 442.019754 295.2 442.019754 
C 293.676524 442.019754 292.215241 442.625038 291.137981 443.702298 
C 290.060721 444.779558 289.455437 446.240841 289.455437 447.764317 
C 289.455437 449.287793 290.060721 450.749076 291.137981 451.826336 
C 292.215241 452.903596 293.676524 453.50888 295.2 453.50888 
z
" style="fill:#c44e52;stroke:#ffffff;stroke-width:2;"/>
    <path clip-path="url(#p3ac81e92d9)" d="M 295.2 284.658057 
C 296.436825 284.658057 297.623159 284.166661 298.497726 283.292094 
C 299.372294 282.417526 299.86369 281.231192 299.86369 279.994367 
C 299.86369 278.757542 299.372294 277.571208 298.497726 276.696641 
C 297.623159 275.822073 296.436825 275.330678 295.2 275.330678 
C 293.963175 275.330678 292.776841 275.822073 291.902274 276.696641 
C 291.027706 277.571208 290.53631 278.757542 290.53631 279.994367 
C 290.53631 281.231192 291.027706 282.417526 291.902274 283.292094 
C 292.776841 284.166661 293.963175 284.658057 295.2 284.658057 
z
" style="fill:#c44e52;stroke:#ffffff;stroke-width:2;"/>
    <path clip-path="url(#p3ac81e92d9)" d="M 295.2 310.125861 
C 296.27726 310.125861 297.310543 309.697861 298.072281 308.936123 
C 298.834019 308.174385 299.262019 307.141102 299.262019 306.063842 
C 299.262019 304.986582 298.834019 303.953299 298.072281 303.191561 
C 297.310543 302.429823 296.27726 302.001823 295.2 302.001823 
C 294.12274 302.001823 293.089457 302.429823 292.327719 303.191561 
C 291.565981 303.953299 291.137981 304.986582 291.137981 306.063842 
C 291.137981 307.141102 291.565981 308.174385 292.327719 308.936123 
C 293.089457 309.697861 294.12274 310.125861 295.2 310.125861 
z
" style="fill:#c44e52;stroke:#ffffff;stroke-width:2;"/>
    <path clip-path="url(#p3ac81e92d9)" d="M 295.2 135.654638 
C 296.20112 135.654638 297.161371 135.256889 297.86927 134.548991 
C 298.577168 133.841092 298.974917 132.880841 298.974917 131.879721 
C 298.974917 130.878601 298.577168 129.91835 297.86927 129.210452 
C 297.161371 128.502553 296.20112 128.104804 295.2 128.104804 
C 294.19888 128.104804 293.238629 128.502553 292.53073 129.210452 
C 291.822832 129.91835 291.425083 130.878601 291.425083 131.879721 
C 291.425083 132.880841 291.822832 133.841092 292.53073 134.548991 
C 293.238629 135.256889 294.19888 135.654638 295.2 135.654638 
z
" style="fill:#c44e52;stroke:#ffffff;stroke-width:2;"/>
   </g>
   <g id="PathCollection_5">
    <path clip-path="url(#p3ac81e92d9)" d="M 362.836364 489.054553 
C 364.115127 489.054553 365.341687 488.546495 366.245909 487.642273 
C 367.150131 486.738051 367.658189 485.51149 367.658189 484.232727 
C 367.658189 482.953964 367.150131 481.727404 366.245909 480.823182 
C 365.341687 479.91896 364.115127 479.410902 362.836364 479.410902 
C 361.557601 479.410902 360.33104 479.91896 359.426818 480.823182 
C 358.522596 481.727404 358.014538 482.953964 358.014538 484.232727 
C 358.014538 485.51149 358.522596 486.738051 359.426818 487.642273 
C 360.33104 488.546495 361.557601 489.054553 362.836364 489.054553 
z
" style="fill:#c44e52;stroke:#ffffff;stroke-width:2;"/>
    <path clip-path="url(#p3ac81e92d9)" d="M 362.836364 310.125861 
C 363.913624 310.125861 364.946907 309.697861 365.708645 308.936123 
C 366.470383 308.174385 366.898383 307.141102 366.898383 306.063842 
C 366.898383 304.986582 366.470383 303.953299 365.708645 303.191561 
C 364.946907 302.429823 363.913624 302.001823 362.836364 302.001823 
C 361.759104 302.001823 360.72582 302.429823 359.964082 303.191561 
C 359.202344 303.953299 358.774344 304.986582 358.774344 306.063842 
C 358.774344 307.141102 359.202344 308.174385 359.964082 308.936123 
C 360.72582 309.697861 361.759104 310.125861 362.836364 310.125861 
z
" style="fill:#c44e52;stroke:#ffffff;stroke-width:2;"/>
    <path clip-path="url(#p3ac81e92d9)" d="M 362.836364 281.93259 
C 363.905432 281.93259 364.930857 281.507845 365.686802 280.7519 
C 366.442747 279.995955 366.867493 278.970529 366.867493 277.901461 
C 366.867493 276.832393 366.442747 275.806968 365.686802 275.051023 
C 364.930857 274.295078 363.905432 273.870332 362.836364 273.870332 
C 361.767296 273.870332 360.74187 274.295078 359.985925 275.051023 
C 359.22998 275.806968 358.805235 276.832393 358.805235 277.901461 
C 358.805235 278.970529 359.22998 279.995955 359.985925 280.7519 
C 360.74187 281.507845 361.767296 281.93259 362.836364 281.93259 
z
" style="fill:#c44e52;stroke:#ffffff;stroke-width:2;"/>
    <path clip-path="url(#p3ac81e92d9)" d="M 362.836364 337.793013 
C 363.872015 337.793013 364.865388 337.381544 365.597704 336.649228 
C 366.33002 335.916912 366.741488 334.923539 366.741488 333.887888 
C 366.741488 332.852237 366.33002 331.858864 365.597704 331.126548 
C 364.865388 330.394232 363.872015 329.982763 362.836364 329.982763 
C 361.800712 329.982763 360.807339 330.394232 360.075023 331.126548 
C 359.342707 331.858864 358.931239 332.852237 358.931239 333.887888 
C 358.931239 334.923539 359.342707 335.916912 360.075023 336.649228 
C 360.807339 337.381544 361.800712 337.793013 362.836364 337.793013 
z
" style="fill:#c44e52;stroke:#ffffff;stroke-width:2;"/>
    <path clip-path="url(#p3ac81e92d9)" d="M 362.836364 135.654638 
C 363.837483 135.654638 364.797735 135.256889 365.505633 134.548991 
C 366.213532 133.841092 366.611281 132.880841 366.611281 131.879721 
C 366.611281 130.878601 366.213532 129.91835 365.505633 129.210452 
C 364.797735 128.502553 363.837483 128.104804 362.836364 128.104804 
C 361.835244 128.104804 360.874993 128.502553 360.167094 129.210452 
C 359.459196 129.91835 359.061446 130.878601 359.061446 131.879721 
C 359.061446 132.880841 359.459196 133.841092 360.167094 134.548991 
C 360.874993 135.256889 361.835244 135.654638 362.836364 135.654638 
z
" style="fill:#c44e52;stroke:#ffffff;stroke-width:2;"/>
   </g>
   <g id="PathCollection_6">
    <path clip-path="url(#p3ac81e92d9)" d="M 430.472727 487.969741 
C 431.744597 487.969741 432.964545 487.464422 433.863892 486.565074 
C 434.76324 485.665727 435.268559 484.445779 435.268559 483.173909 
C 435.268559 481.90204 434.76324 480.682092 433.863892 479.782744 
C 432.964545 478.883397 431.744597 478.378078 430.472727 478.378078 
C 429.200858 478.378078 427.98091 478.883397 427.081562 479.782744 
C 426.182215 480.682092 425.676896 481.90204 425.676896 483.173909 
C 425.676896 484.445779 426.182215 485.665727 427.081562 486.565074 
C 427.98091 487.464422 429.200858 487.969741 430.472727 487.969741 
z
" style="fill:#c44e52;stroke:#ffffff;stroke-width:2;"/>
    <path clip-path="url(#p3ac81e92d9)" d="M 430.472727 306.367751 
C 431.574198 306.367751 432.630705 305.930132 433.409562 305.151274 
C 434.18842 304.372416 434.626039 303.31591 434.626039 302.214439 
C 434.626039 301.112968 434.18842 300.056462 433.409562 299.277604 
C 432.630705 298.498746 431.574198 298.061127 430.472727 298.061127 
C 429.371256 298.061127 428.31475 298.498746 427.535892 299.277604 
C 426.757034 300.056462 426.319415 301.112968 426.319415 302.214439 
C 426.319415 303.31591 426.757034 304.372416 427.535892 305.151274 
C 428.31475 305.930132 429.371256 306.367751 430.472727 306.367751 
z
" style="fill:#c44e52;stroke:#ffffff;stroke-width:2;"/>
    <path clip-path="url(#p3ac81e92d9)" d="M 430.472727 332.618241 
C 431.516833 332.618241 432.518315 332.203413 433.256609 331.465119 
C 433.994904 330.726825 434.409731 329.725343 434.409731 328.681237 
C 434.409731 327.637131 433.994904 326.635649 433.256609 325.897355 
C 432.518315 325.159061 431.516833 324.744233 430.472727 324.744233 
C 429.428622 324.744233 428.427139 325.159061 427.688845 325.897355 
C 426.950551 326.635649 426.535723 327.637131 426.535723 328.681237 
C 426.535723 329.725343 426.950551 330.726825 427.688845 331.465119 
C 428.427139 332.203413 429.428622 332.618241 430.472727 332.618241 
z
" style="fill:#c44e52;stroke:#ffffff;stroke-width:2;"/>
    <path clip-path="url(#p3ac81e92d9)" d="M 430.472727 130.795742 
C 431.447146 130.795742 432.381786 130.408601 433.070803 129.719583 
C 433.759821 129.030565 434.146962 128.095926 434.146962 127.121507 
C 434.146962 126.147089 433.759821 125.212449 433.070803 124.523431 
C 432.381786 123.834413 431.447146 123.447273 430.472727 123.447273 
C 429.498309 123.447273 428.563669 123.834413 427.874651 124.523431 
C 427.185633 125.212449 426.798493 126.147089 426.798493 127.121507 
C 426.798493 128.095926 427.185633 129.030565 427.874651 129.719583 
C 428.563669 130.408601 429.498309 130.795742 430.472727 130.795742 
z
" style="fill:#c44e52;stroke:#ffffff;stroke-width:2;"/>
    <path clip-path="url(#p3ac81e92d9)" d="M 430.472727 215.984947 
C 431.257209 215.984947 432.009665 215.673269 432.564377 215.118557 
C 433.119089 214.563845 433.430767 213.811389 433.430767 213.026907 
C 433.430767 212.242426 433.119089 211.489969 432.564377 210.935257 
C 432.009665 210.380545 431.257209 210.068867 430.472727 210.068867 
C 429.688246 210.068867 428.935789 210.380545 428.381077 210.935257 
C 427.826365 211.489969 427.514687 212.242426 427.514687 213.026907 
C 427.514687 213.811389 427.826365 214.563845 428.381077 215.118557 
C 428.935789 215.673269 429.688246 215.984947 430.472727 215.984947 
z
" style="fill:#c44e52;stroke:#ffffff;stroke-width:2;"/>
    <path clip-path="url(#p3ac81e92d9)" d="M 430.472727 375.346002 
C 431.199016 375.346002 431.895655 375.057444 432.409219 374.543881 
C 432.922783 374.030317 433.21134 373.333678 433.21134 372.607389 
C 433.21134 371.881101 432.922783 371.184461 432.409219 370.670898 
C 431.895655 370.157334 431.199016 369.868776 430.472727 369.868776 
C 429.746439 369.868776 429.049799 370.157334 428.536236 370.670898 
C 428.022672 371.184461 427.734114 371.881101 427.734114 372.607389 
C 427.734114 373.333678 428.022672 374.030317 428.536236 374.543881 
C 429.049799 375.057444 429.746439 375.346002 430.472727 375.346002 
z
" style="fill:#c44e52;stroke:#ffffff;stroke-width:2;"/>
   </g>
   <g id="PathCollection_7">
    <path clip-path="url(#p3ac81e92d9)" d="M 498.109091 489.054553 
C 499.387854 489.054553 500.614414 488.546495 501.518636 487.642273 
C 502.422858 486.738051 502.930916 485.51149 502.930916 484.232727 
C 502.930916 482.953964 502.422858 481.727404 501.518636 480.823182 
C 500.614414 479.91896 499.387854 479.410902 498.109091 479.410902 
C 496.830328 479.410902 495.603768 479.91896 494.699545 480.823182 
C 493.795323 481.727404 493.287266 482.953964 493.287266 484.232727 
C 493.287266 485.51149 493.795323 486.738051 494.699545 487.642273 
C 495.603768 488.546495 496.830328 489.054553 498.109091 489.054553 
z
" style="fill:#c44e52;stroke:#ffffff;stroke-width:2;"/>
    <path clip-path="url(#p3ac81e92d9)" d="M 498.109091 337.793013 
C 499.144742 337.793013 500.138115 337.381544 500.870431 336.649228 
C 501.602747 335.916912 502.014216 334.923539 502.014216 333.887888 
C 502.014216 332.852237 501.602747 331.858864 500.870431 331.126548 
C 500.138115 330.394232 499.144742 329.982763 498.109091 329.982763 
C 497.07344 329.982763 496.080067 330.394232 495.347751 331.126548 
C 494.615435 331.858864 494.203966 332.852237 494.203966 333.887888 
C 494.203966 334.923539 494.615435 335.916912 495.347751 336.649228 
C 496.080067 337.381544 497.07344 337.793013 498.109091 337.793013 
z
" style="fill:#c44e52;stroke:#ffffff;stroke-width:2;"/>
    <path clip-path="url(#p3ac81e92d9)" d="M 498.109091 328.394164 
C 499.065294 328.394164 499.982463 328.01426 500.658601 327.338122 
C 501.334739 326.661984 501.714642 325.744816 501.714642 324.788613 
C 501.714642 323.832409 501.334739 322.915241 500.658601 322.239103 
C 499.982463 321.562965 499.065294 321.183061 498.109091 321.183061 
C 497.152888 321.183061 496.235719 321.562965 495.559581 322.239103 
C 494.883443 322.915241 494.50354 323.832409 494.50354 324.788613 
C 494.50354 325.744816 494.883443 326.661984 495.559581 327.338122 
C 496.235719 328.01426 497.152888 328.394164 498.109091 328.394164 
z
" style="fill:#c44e52;stroke:#ffffff;stroke-width:2;"/>
    <path clip-path="url(#p3ac81e92d9)" d="M 498.109091 210.847202 
C 498.926502 210.847202 499.710544 210.522442 500.28854 209.944445 
C 500.866537 209.366448 501.191298 208.582406 501.191298 207.764995 
C 501.191298 206.947585 500.866537 206.163543 500.28854 205.585546 
C 499.710544 205.007549 498.926502 204.682788 498.109091 204.682788 
C 497.29168 204.682788 496.507638 205.007549 495.929641 205.585546 
C 495.351645 206.163543 495.026884 206.947585 495.026884 207.764995 
C 495.026884 208.582406 495.351645 209.366448 495.929641 209.944445 
C 496.507638 210.522442 497.29168 210.847202 498.109091 210.847202 
z
" style="fill:#c44e52;stroke:#ffffff;stroke-width:2;"/>
    <path clip-path="url(#p3ac81e92d9)" d="M 498.109091 211.237019 
C 498.870829 211.237019 499.60147 210.934377 500.140101 210.395747 
C 500.678731 209.857117 500.981372 209.126476 500.981372 208.364738 
C 500.981372 207.603 500.678731 206.872358 500.140101 206.333728 
C 499.60147 205.795098 498.870829 205.492457 498.109091 205.492457 
C 497.347353 205.492457 496.616711 205.795098 496.078081 206.333728 
C 495.539451 206.872358 495.23681 207.603 495.23681 208.364738 
C 495.23681 209.126476 495.539451 209.857117 496.078081 210.395747 
C 496.616711 210.934377 497.347353 211.237019 498.109091 211.237019 
z
" style="fill:#c44e52;stroke:#ffffff;stroke-width:2;"/>
    <path clip-path="url(#p3ac81e92d9)" d="M 498.109091 91.759554 
C 498.870829 91.759554 499.60147 91.456912 500.140101 90.918282 
C 500.678731 90.379652 500.981372 89.649011 500.981372 88.887273 
C 500.981372 88.125535 500.678731 87.394893 500.140101 86.856263 
C 499.60147 86.317633 498.870829 86.014991 498.109091 86.014991 
C 497.347353 86.014991 496.616711 86.317633 496.078081 86.856263 
C 495.539451 87.394893 495.23681 88.125535 495.23681 88.887273 
C 495.23681 89.649011 495.539451 90.379652 496.078081 90.918282 
C 496.616711 91.456912 497.347353 91.759554 498.109091 91.759554 
z
" style="fill:#c44e52;stroke:#ffffff;stroke-width:2;"/>
    <path clip-path="url(#p3ac81e92d9)" d="M 498.109091 352.439634 
C 498.859199 352.439634 499.578685 352.141614 500.109091 351.611207 
C 500.639497 351.080801 500.937518 350.361315 500.937518 349.611207 
C 500.937518 348.8611 500.639497 348.141614 500.109091 347.611207 
C 499.578685 347.080801 498.859199 346.78278 498.109091 346.78278 
C 497.358983 346.78278 496.639497 347.080801 496.109091 347.611207 
C 495.578685 348.141614 495.280664 348.8611 495.280664 349.611207 
C 495.280664 350.361315 495.578685 351.080801 496.109091 351.611207 
C 496.639497 352.141614 497.358983 352.439634 498.109091 352.439634 
z
" style="fill:#c44e52;stroke:#ffffff;stroke-width:2;"/>
   </g>
   <g id="patch_3">
    <path d="M 72 504 
L 72 69.12 
" style="fill:none;stroke:#cccccc;stroke-linecap:square;stroke-linejoin:miter;stroke-width:1.25;"/>
   </g>
   <g id="patch_4">
    <path d="M 518.4 504 
L 518.4 69.12 
" style="fill:none;stroke:#cccccc;stroke-linecap:square;stroke-linejoin:miter;stroke-width:1.25;"/>
   </g>
   <g id="patch_5">
    <path d="M 72 504 
L 518.4 504 
" style="fill:none;stroke:#cccccc;stroke-linecap:square;stroke-linejoin:miter;stroke-width:1.25;"/>
   </g>
   <g id="patch_6">
    <path d="M 72 69.12 
L 518.4 69.12 
" style="fill:none;stroke:#cccccc;stroke-linecap:square;stroke-linejoin:miter;stroke-width:1.25;"/>
   </g>
  </g>
 </g>
 <defs>
  <clipPath id="p3ac81e92d9">
   <rect height="434.88" width="446.4" x="72" y="69.12"/>
  </clipPath>
 </defs>
</svg>
