<?xml version="1.0" encoding="UTF-8" standalone="no"?>
<!DOCTYPE svg PUBLIC "-//W3C//DTD SVG 1.1//EN" "http://www.w3.org/Graphics/SVG/1.1/DTD/svg11.dtd">
<svg width="100%" height="100%" viewBox="0 0 576 576" version="1.1" xmlns="http://www.w3.org/2000/svg" xmlns:xlink="http://www.w3.org/1999/xlink" xml:space="preserve" xmlns:serif="http://www.serif.com/" style="fill-rule:evenodd;clip-rule:evenodd;stroke-linecap:round;">
    <g id="figure_1">
        <g id="patch_1">
        </g>
        <g id="axes_1" transform="matrix(1.13876,0,0,1.13876,-38.4139,-40.9777)">
            <g id="patch_2">
                <rect x="72" y="69.12" width="446.4" height="434.88" style="fill:white;fill-rule:nonzero;"/>
            </g>
            <g id="matplotlib.axis_1">
                <g id="xtick_1">
                    <g id="line2d_1">
                        <path d="M92.291,504L92.291,69.12" style="fill:none;fill-rule:nonzero;stroke:rgb(204,204,204);stroke-width:1px;"/>
                    </g>
                    <g transform="matrix(0.11,0,0,-0.11,89.2324,521.374)">
                        <g id="text_1">
                            <g>
                                <path id="ArialMT-49" d="M37.25,0L28.469,0L28.469,56C26.354,53.99 23.578,51.974 20.141,49.953C16.703,47.932 13.62,46.417 10.891,45.406L10.891,53.906C15.807,56.219 20.104,59.016 23.781,62.297C27.458,65.589 30.063,68.781 31.594,71.875L37.25,71.875L37.25,0Z" style="fill:rgb(38,38,38);fill-rule:nonzero;"/>
                            </g>
                        </g>
                    </g>
                </g>
                <g id="xtick_2">
                    <g id="line2d_2">
                        <path d="M159.927,504L159.927,69.12" style="fill:none;fill-rule:nonzero;stroke:rgb(204,204,204);stroke-width:1px;"/>
                    </g>
                    <g transform="matrix(0.11,0,0,-0.11,156.869,521.374)">
                        <g id="text_2">
                            <g>
                                <path id="ArialMT-50" d="M50.344,8.453L50.344,0L3.031,0C2.969,2.115 3.307,4.151 4.047,6.109C5.255,9.328 7.182,12.5 9.828,15.625C12.484,18.75 16.323,22.365 21.344,26.469C29.125,32.844 34.38,37.896 37.109,41.625C39.849,45.354 41.219,48.88 41.219,52.203C41.219,55.682 39.969,58.615 37.469,61C34.979,63.396 31.734,64.594 27.734,64.594C23.505,64.594 20.12,63.323 17.578,60.781C15.036,58.25 13.75,54.74 13.719,50.25L4.688,51.172C5.302,57.911 7.625,63.047 11.656,66.578C15.698,70.109 21.125,71.875 27.938,71.875C34.802,71.875 40.234,69.969 44.234,66.156C48.245,62.354 50.25,57.635 50.25,52C50.25,49.135 49.661,46.318 48.484,43.547C47.318,40.786 45.375,37.875 42.656,34.813C39.938,31.75 35.422,27.552 29.109,22.219C23.828,17.792 20.438,14.786 18.938,13.203C17.448,11.63 16.214,10.047 15.234,8.453L50.344,8.453Z" style="fill:rgb(38,38,38);fill-rule:nonzero;"/>
                            </g>
                        </g>
                    </g>
                </g>
                <g id="xtick_3">
                    <g id="line2d_3">
                        <path d="M227.564,504L227.564,69.12" style="fill:none;fill-rule:nonzero;stroke:rgb(204,204,204);stroke-width:1px;"/>
                    </g>
                    <g transform="matrix(0.11,0,0,-0.11,224.505,521.374)">
                        <g id="text_3">
                            <g>
                                <path id="ArialMT-51" d="M4.203,18.891L12.984,20.063C13.995,15.083 15.714,11.495 18.141,9.297C20.568,7.099 23.521,6 27,6C31.135,6 34.625,7.432 37.469,10.297C40.323,13.161 41.75,16.714 41.75,20.953C41.75,24.984 40.432,28.307 37.797,30.922C35.161,33.547 31.807,34.859 27.734,34.859C26.078,34.859 24.01,34.536 21.531,33.891L22.516,41.609C23.099,41.536 23.568,41.5 23.922,41.5C27.672,41.5 31.042,42.474 34.031,44.422C37.031,46.38 38.531,49.396 38.531,53.469C38.531,56.688 37.438,59.354 35.25,61.469C33.073,63.594 30.26,64.656 26.813,64.656C23.396,64.656 20.547,63.578 18.266,61.422C15.984,59.276 14.521,56.057 13.875,51.766L5.078,53.328C6.151,59.214 8.589,63.776 12.391,67.016C16.203,70.255 20.943,71.875 26.609,71.875C30.516,71.875 34.109,71.036 37.391,69.359C40.682,67.682 43.198,65.396 44.938,62.5C46.688,59.604 47.563,56.526 47.563,53.266C47.563,50.182 46.729,47.37 45.063,44.828C43.406,42.286 40.953,40.266 37.703,38.766C41.932,37.797 45.219,35.771 47.563,32.688C49.906,29.615 51.078,25.766 51.078,21.141C51.078,14.891 48.797,9.594 44.234,5.25C39.682,0.906 33.922,-1.266 26.953,-1.266C20.672,-1.266 15.453,0.604 11.297,4.344C7.151,8.094 4.786,12.943 4.203,18.891Z" style="fill:rgb(38,38,38);fill-rule:nonzero;"/>
                            </g>
                        </g>
                    </g>
                </g>
                <g id="xtick_4">
                    <g id="line2d_4">
                        <path d="M295.2,504L295.2,69.12" style="fill:none;fill-rule:nonzero;stroke:rgb(204,204,204);stroke-width:1px;"/>
                    </g>
                    <g transform="matrix(0.11,0,0,-0.11,292.141,521.374)">
                        <g id="text_4">
                            <g>
                                <path id="ArialMT-52" d="M32.328,0L32.328,17.141L1.266,17.141L1.266,25.203L33.938,71.578L41.109,71.578L41.109,25.203L50.781,25.203L50.781,17.141L41.109,17.141L41.109,0L32.328,0ZM32.328,25.203L32.328,57.469L9.906,25.203L32.328,25.203Z" style="fill:rgb(38,38,38);fill-rule:nonzero;"/>
                            </g>
                        </g>
                    </g>
                </g>
                <g id="xtick_5">
                    <g id="line2d_5">
                        <path d="M362.836,504L362.836,69.12" style="fill:none;fill-rule:nonzero;stroke:rgb(204,204,204);stroke-width:1px;"/>
                    </g>
                    <g transform="matrix(0.11,0,0,-0.11,359.778,521.374)">
                        <g id="text_5">
                            <g>
                                <path id="ArialMT-53" d="M4.156,18.75L13.375,19.531C14.063,15.042 15.651,11.661 18.141,9.391C20.63,7.13 23.635,6 27.156,6C31.385,6 34.964,7.594 37.891,10.781C40.818,13.979 42.281,18.214 42.281,23.484C42.281,28.495 40.875,32.448 38.063,35.344C35.25,38.25 31.563,39.703 27,39.703C24.167,39.703 21.609,39.057 19.328,37.766C17.057,36.484 15.271,34.818 13.969,32.766L5.719,33.844L12.641,70.609L48.25,70.609L48.25,62.203L19.672,62.203L15.828,42.969C20.12,45.969 24.625,47.469 29.344,47.469C35.594,47.469 40.865,45.302 45.156,40.969C49.458,36.635 51.609,31.068 51.609,24.266C51.609,17.786 49.724,12.188 45.953,7.469C41.359,1.677 35.094,-1.219 27.156,-1.219C20.646,-1.219 15.328,0.604 11.203,4.25C7.089,7.896 4.74,12.729 4.156,18.75Z" style="fill:rgb(38,38,38);fill-rule:nonzero;"/>
                            </g>
                        </g>
                    </g>
                </g>
                <g id="xtick_6">
                    <g id="line2d_6">
                        <path d="M430.473,504L430.473,69.12" style="fill:none;fill-rule:nonzero;stroke:rgb(204,204,204);stroke-width:1px;"/>
                    </g>
                    <g transform="matrix(0.11,0,0,-0.11,427.414,521.374)">
                        <g id="text_6">
                            <g>
                                <path id="ArialMT-54" d="M49.75,54.047L41.016,53.375C40.234,56.823 39.13,59.328 37.703,60.891C35.318,63.401 32.385,64.656 28.906,64.656C26.104,64.656 23.646,63.875 21.531,62.313C18.771,60.292 16.589,57.344 14.984,53.469C13.391,49.594 12.563,44.078 12.5,36.922C14.615,40.141 17.203,42.531 20.266,44.094C23.328,45.656 26.536,46.438 29.891,46.438C35.745,46.438 40.729,44.281 44.844,39.969C48.969,35.656 51.031,30.083 51.031,23.25C51.031,18.75 50.063,14.573 48.125,10.719C46.188,6.865 43.526,3.911 40.141,1.859C36.755,-0.193 32.911,-1.219 28.609,-1.219C21.286,-1.219 15.313,1.474 10.688,6.859C6.073,12.245 3.766,21.125 3.766,33.5C3.766,47.333 6.318,57.391 11.422,63.672C15.88,69.141 21.885,71.875 29.438,71.875C35.073,71.875 39.688,70.297 43.281,67.141C46.885,63.984 49.042,59.62 49.75,54.047ZM13.875,23.188C13.875,20.167 14.516,17.271 15.797,14.5C17.078,11.74 18.875,9.63 21.188,8.172C23.5,6.724 25.927,6 28.469,6C32.177,6 35.365,7.495 38.031,10.484C40.708,13.484 42.047,17.557 42.047,22.703C42.047,27.651 40.724,31.547 38.078,34.391C35.443,37.245 32.125,38.672 28.125,38.672C24.156,38.672 20.786,37.245 18.016,34.391C15.255,31.547 13.875,27.813 13.875,23.188Z" style="fill:rgb(38,38,38);fill-rule:nonzero;"/>
                            </g>
                        </g>
                    </g>
                </g>
                <g id="xtick_7">
                    <g id="line2d_7">
                        <path d="M498.109,504L498.109,69.12" style="fill:none;fill-rule:nonzero;stroke:rgb(204,204,204);stroke-width:1px;"/>
                    </g>
                    <g transform="matrix(0.11,0,0,-0.11,495.051,521.374)">
                        <g id="text_7">
                            <g>
                                <path id="ArialMT-55" d="M4.734,62.203L4.734,70.656L51.078,70.656L51.078,63.813C46.516,58.969 41.995,52.526 37.516,44.484C33.047,36.443 29.594,28.172 27.156,19.672C25.396,13.682 24.271,7.125 23.781,0L14.75,0C14.844,5.635 15.948,12.438 18.063,20.406C20.177,28.385 23.214,36.078 27.172,43.484C31.13,50.891 35.339,57.13 39.797,62.203L4.734,62.203Z" style="fill:rgb(38,38,38);fill-rule:nonzero;"/>
                            </g>
                        </g>
                    </g>
                </g>
            </g>
            <g id="matplotlib.axis_2">
                <g id="ytick_1">
                    <g id="line2d_8">
                        <path d="M72,490.616L518.4,490.616" style="fill:none;fill-rule:nonzero;stroke:rgb(204,204,204);stroke-width:1px;"/>
                    </g>
                    <g transform="matrix(0.11,0,0,-0.11,34.6683,494.553)">
                        <g id="text_8">
                            <g>
                                <rect id="ArialMT-8722" x="5.563" y="31.203" width="47.266" height="8.203" style="fill:rgb(38,38,38);fill-rule:nonzero;"/>
                                <g id="ArialMT-48" transform="matrix(1,0,0,1,58.3984,0)">
                                    <path d="M4.156,35.297C4.156,43.766 5.026,50.578 6.766,55.734C8.505,60.901 11.089,64.88 14.516,67.672C17.953,70.474 22.276,71.875 27.484,71.875C31.328,71.875 34.698,71.099 37.594,69.547C40.49,68.005 42.88,65.776 44.766,62.859C46.661,59.953 48.146,56.406 49.219,52.219C50.292,48.042 50.828,42.401 50.828,35.297C50.828,26.901 49.964,20.125 48.234,14.969C46.516,9.813 43.938,5.823 40.5,3C37.073,0.188 32.734,-1.219 27.484,-1.219C20.589,-1.219 15.172,1.255 11.234,6.203C6.516,12.161 4.156,21.859 4.156,35.297ZM13.188,35.297C13.188,23.547 14.563,15.724 17.313,11.828C20.063,7.943 23.453,6 27.484,6C31.526,6 34.922,7.953 37.672,11.859C40.422,15.766 41.797,23.578 41.797,35.297C41.797,47.089 40.422,54.917 37.672,58.781C34.922,62.656 31.495,64.594 27.391,64.594C23.359,64.594 20.135,62.885 17.719,59.469C14.698,55.115 13.188,47.057 13.188,35.297Z" style="fill:rgb(38,38,38);fill-rule:nonzero;"/>
                                </g>
                                <g id="ArialMT-46" transform="matrix(1,0,0,1,114.014,0)">
                                    <rect x="9.078" y="0" width="10.016" height="10.016" style="fill:rgb(38,38,38);fill-rule:nonzero;"/>
                                </g>
                                <g id="ArialMT-551" serif:id="ArialMT-55" transform="matrix(1,0,0,1,141.797,0)">
                                    <path d="M4.734,62.203L4.734,70.656L51.078,70.656L51.078,63.813C46.516,58.969 41.995,52.526 37.516,44.484C33.047,36.443 29.594,28.172 27.156,19.672C25.396,13.682 24.271,7.125 23.781,0L14.75,0C14.844,5.635 15.948,12.438 18.063,20.406C20.177,28.385 23.214,36.078 27.172,43.484C31.13,50.891 35.339,57.13 39.797,62.203L4.734,62.203Z" style="fill:rgb(38,38,38);fill-rule:nonzero;"/>
                                </g>
                                <g id="ArialMT-531" serif:id="ArialMT-53" transform="matrix(1,0,0,1,197.412,0)">
                                    <path d="M4.156,18.75L13.375,19.531C14.063,15.042 15.651,11.661 18.141,9.391C20.63,7.13 23.635,6 27.156,6C31.385,6 34.964,7.594 37.891,10.781C40.818,13.979 42.281,18.214 42.281,23.484C42.281,28.495 40.875,32.448 38.063,35.344C35.25,38.25 31.563,39.703 27,39.703C24.167,39.703 21.609,39.057 19.328,37.766C17.057,36.484 15.271,34.818 13.969,32.766L5.719,33.844L12.641,70.609L48.25,70.609L48.25,62.203L19.672,62.203L15.828,42.969C20.12,45.969 24.625,47.469 29.344,47.469C35.594,47.469 40.865,45.302 45.156,40.969C49.458,36.635 51.609,31.068 51.609,24.266C51.609,17.786 49.724,12.188 45.953,7.469C41.359,1.677 35.094,-1.219 27.156,-1.219C20.646,-1.219 15.328,0.604 11.203,4.25C7.089,7.896 4.74,12.729 4.156,18.75Z" style="fill:rgb(38,38,38);fill-rule:nonzero;"/>
                                </g>
                            </g>
                        </g>
                    </g>
                </g>
                <g id="ytick_2">
                    <g id="line2d_9">
                        <path d="M72,435.442L518.4,435.442" style="fill:none;fill-rule:nonzero;stroke:rgb(204,204,204);stroke-width:1px;"/>
                    </g>
                    <g transform="matrix(0.11,0,0,-0.11,34.6683,439.379)">
                        <g id="text_9">
                            <g>
                                <rect id="ArialMT-87221" serif:id="ArialMT-8722" x="5.563" y="31.203" width="47.266" height="8.203" style="fill:rgb(38,38,38);fill-rule:nonzero;"/>
                                <g id="ArialMT-481" serif:id="ArialMT-48" transform="matrix(1,0,0,1,58.3984,0)">
                                    <path d="M4.156,35.297C4.156,43.766 5.026,50.578 6.766,55.734C8.505,60.901 11.089,64.88 14.516,67.672C17.953,70.474 22.276,71.875 27.484,71.875C31.328,71.875 34.698,71.099 37.594,69.547C40.49,68.005 42.88,65.776 44.766,62.859C46.661,59.953 48.146,56.406 49.219,52.219C50.292,48.042 50.828,42.401 50.828,35.297C50.828,26.901 49.964,20.125 48.234,14.969C46.516,9.813 43.938,5.823 40.5,3C37.073,0.188 32.734,-1.219 27.484,-1.219C20.589,-1.219 15.172,1.255 11.234,6.203C6.516,12.161 4.156,21.859 4.156,35.297ZM13.188,35.297C13.188,23.547 14.563,15.724 17.313,11.828C20.063,7.943 23.453,6 27.484,6C31.526,6 34.922,7.953 37.672,11.859C40.422,15.766 41.797,23.578 41.797,35.297C41.797,47.089 40.422,54.917 37.672,58.781C34.922,62.656 31.495,64.594 27.391,64.594C23.359,64.594 20.135,62.885 17.719,59.469C14.698,55.115 13.188,47.057 13.188,35.297Z" style="fill:rgb(38,38,38);fill-rule:nonzero;"/>
                                </g>
                                <g id="ArialMT-461" serif:id="ArialMT-46" transform="matrix(1,0,0,1,114.014,0)">
                                    <rect x="9.078" y="0" width="10.016" height="10.016" style="fill:rgb(38,38,38);fill-rule:nonzero;"/>
                                </g>
                                <g id="ArialMT-532" serif:id="ArialMT-53" transform="matrix(1,0,0,1,141.797,0)">
                                    <path d="M4.156,18.75L13.375,19.531C14.063,15.042 15.651,11.661 18.141,9.391C20.63,7.13 23.635,6 27.156,6C31.385,6 34.964,7.594 37.891,10.781C40.818,13.979 42.281,18.214 42.281,23.484C42.281,28.495 40.875,32.448 38.063,35.344C35.25,38.25 31.563,39.703 27,39.703C24.167,39.703 21.609,39.057 19.328,37.766C17.057,36.484 15.271,34.818 13.969,32.766L5.719,33.844L12.641,70.609L48.25,70.609L48.25,62.203L19.672,62.203L15.828,42.969C20.12,45.969 24.625,47.469 29.344,47.469C35.594,47.469 40.865,45.302 45.156,40.969C49.458,36.635 51.609,31.068 51.609,24.266C51.609,17.786 49.724,12.188 45.953,7.469C41.359,1.677 35.094,-1.219 27.156,-1.219C20.646,-1.219 15.328,0.604 11.203,4.25C7.089,7.896 4.74,12.729 4.156,18.75Z" style="fill:rgb(38,38,38);fill-rule:nonzero;"/>
                                </g>
                                <g id="ArialMT-482" serif:id="ArialMT-48" transform="matrix(1,0,0,1,197.412,0)">
                                    <path d="M4.156,35.297C4.156,43.766 5.026,50.578 6.766,55.734C8.505,60.901 11.089,64.88 14.516,67.672C17.953,70.474 22.276,71.875 27.484,71.875C31.328,71.875 34.698,71.099 37.594,69.547C40.49,68.005 42.88,65.776 44.766,62.859C46.661,59.953 48.146,56.406 49.219,52.219C50.292,48.042 50.828,42.401 50.828,35.297C50.828,26.901 49.964,20.125 48.234,14.969C46.516,9.813 43.938,5.823 40.5,3C37.073,0.188 32.734,-1.219 27.484,-1.219C20.589,-1.219 15.172,1.255 11.234,6.203C6.516,12.161 4.156,21.859 4.156,35.297ZM13.188,35.297C13.188,23.547 14.563,15.724 17.313,11.828C20.063,7.943 23.453,6 27.484,6C31.526,6 34.922,7.953 37.672,11.859C40.422,15.766 41.797,23.578 41.797,35.297C41.797,47.089 40.422,54.917 37.672,58.781C34.922,62.656 31.495,64.594 27.391,64.594C23.359,64.594 20.135,62.885 17.719,59.469C14.698,55.115 13.188,47.057 13.188,35.297Z" style="fill:rgb(38,38,38);fill-rule:nonzero;"/>
                                </g>
                            </g>
                        </g>
                    </g>
                </g>
                <g id="ytick_3">
                    <g id="line2d_10">
                        <path d="M72,380.267L518.4,380.267" style="fill:none;fill-rule:nonzero;stroke:rgb(204,204,204);stroke-width:1px;"/>
                    </g>
                    <g transform="matrix(0.11,0,0,-0.11,34.6683,384.204)">
                        <g id="text_10">
                            <g>
                                <rect id="ArialMT-87222" serif:id="ArialMT-8722" x="5.563" y="31.203" width="47.266" height="8.203" style="fill:rgb(38,38,38);fill-rule:nonzero;"/>
                                <g id="ArialMT-483" serif:id="ArialMT-48" transform="matrix(1,0,0,1,58.3984,0)">
                                    <path d="M4.156,35.297C4.156,43.766 5.026,50.578 6.766,55.734C8.505,60.901 11.089,64.88 14.516,67.672C17.953,70.474 22.276,71.875 27.484,71.875C31.328,71.875 34.698,71.099 37.594,69.547C40.49,68.005 42.88,65.776 44.766,62.859C46.661,59.953 48.146,56.406 49.219,52.219C50.292,48.042 50.828,42.401 50.828,35.297C50.828,26.901 49.964,20.125 48.234,14.969C46.516,9.813 43.938,5.823 40.5,3C37.073,0.188 32.734,-1.219 27.484,-1.219C20.589,-1.219 15.172,1.255 11.234,6.203C6.516,12.161 4.156,21.859 4.156,35.297ZM13.188,35.297C13.188,23.547 14.563,15.724 17.313,11.828C20.063,7.943 23.453,6 27.484,6C31.526,6 34.922,7.953 37.672,11.859C40.422,15.766 41.797,23.578 41.797,35.297C41.797,47.089 40.422,54.917 37.672,58.781C34.922,62.656 31.495,64.594 27.391,64.594C23.359,64.594 20.135,62.885 17.719,59.469C14.698,55.115 13.188,47.057 13.188,35.297Z" style="fill:rgb(38,38,38);fill-rule:nonzero;"/>
                                </g>
                                <g id="ArialMT-462" serif:id="ArialMT-46" transform="matrix(1,0,0,1,114.014,0)">
                                    <rect x="9.078" y="0" width="10.016" height="10.016" style="fill:rgb(38,38,38);fill-rule:nonzero;"/>
                                </g>
                                <g id="ArialMT-501" serif:id="ArialMT-50" transform="matrix(1,0,0,1,141.797,0)">
                                    <path d="M50.344,8.453L50.344,0L3.031,0C2.969,2.115 3.307,4.151 4.047,6.109C5.255,9.328 7.182,12.5 9.828,15.625C12.484,18.75 16.323,22.365 21.344,26.469C29.125,32.844 34.38,37.896 37.109,41.625C39.849,45.354 41.219,48.88 41.219,52.203C41.219,55.682 39.969,58.615 37.469,61C34.979,63.396 31.734,64.594 27.734,64.594C23.505,64.594 20.12,63.323 17.578,60.781C15.036,58.25 13.75,54.74 13.719,50.25L4.688,51.172C5.302,57.911 7.625,63.047 11.656,66.578C15.698,70.109 21.125,71.875 27.938,71.875C34.802,71.875 40.234,69.969 44.234,66.156C48.245,62.354 50.25,57.635 50.25,52C50.25,49.135 49.661,46.318 48.484,43.547C47.318,40.786 45.375,37.875 42.656,34.813C39.938,31.75 35.422,27.552 29.109,22.219C23.828,17.792 20.438,14.786 18.938,13.203C17.448,11.63 16.214,10.047 15.234,8.453L50.344,8.453Z" style="fill:rgb(38,38,38);fill-rule:nonzero;"/>
                                </g>
                                <g id="ArialMT-533" serif:id="ArialMT-53" transform="matrix(1,0,0,1,197.412,0)">
                                    <path d="M4.156,18.75L13.375,19.531C14.063,15.042 15.651,11.661 18.141,9.391C20.63,7.13 23.635,6 27.156,6C31.385,6 34.964,7.594 37.891,10.781C40.818,13.979 42.281,18.214 42.281,23.484C42.281,28.495 40.875,32.448 38.063,35.344C35.25,38.25 31.563,39.703 27,39.703C24.167,39.703 21.609,39.057 19.328,37.766C17.057,36.484 15.271,34.818 13.969,32.766L5.719,33.844L12.641,70.609L48.25,70.609L48.25,62.203L19.672,62.203L15.828,42.969C20.12,45.969 24.625,47.469 29.344,47.469C35.594,47.469 40.865,45.302 45.156,40.969C49.458,36.635 51.609,31.068 51.609,24.266C51.609,17.786 49.724,12.188 45.953,7.469C41.359,1.677 35.094,-1.219 27.156,-1.219C20.646,-1.219 15.328,0.604 11.203,4.25C7.089,7.896 4.74,12.729 4.156,18.75Z" style="fill:rgb(38,38,38);fill-rule:nonzero;"/>
                                </g>
                            </g>
                        </g>
                    </g>
                </g>
                <g id="ytick_4">
                    <g id="line2d_11">
                        <path d="M72,325.093L518.4,325.093" style="fill:none;fill-rule:nonzero;stroke:rgb(204,204,204);stroke-width:1px;"/>
                    </g>
                    <g transform="matrix(0.11,0,0,-0.11,41.093,329.03)">
                        <g id="text_11">
                            <g>
                                <path id="ArialMT-484" serif:id="ArialMT-48" d="M4.156,35.297C4.156,43.766 5.026,50.578 6.766,55.734C8.505,60.901 11.089,64.88 14.516,67.672C17.953,70.474 22.276,71.875 27.484,71.875C31.328,71.875 34.698,71.099 37.594,69.547C40.49,68.005 42.88,65.776 44.766,62.859C46.661,59.953 48.146,56.406 49.219,52.219C50.292,48.042 50.828,42.401 50.828,35.297C50.828,26.901 49.964,20.125 48.234,14.969C46.516,9.813 43.938,5.823 40.5,3C37.073,0.188 32.734,-1.219 27.484,-1.219C20.589,-1.219 15.172,1.255 11.234,6.203C6.516,12.161 4.156,21.859 4.156,35.297ZM13.188,35.297C13.188,23.547 14.563,15.724 17.313,11.828C20.063,7.943 23.453,6 27.484,6C31.526,6 34.922,7.953 37.672,11.859C40.422,15.766 41.797,23.578 41.797,35.297C41.797,47.089 40.422,54.917 37.672,58.781C34.922,62.656 31.495,64.594 27.391,64.594C23.359,64.594 20.135,62.885 17.719,59.469C14.698,55.115 13.188,47.057 13.188,35.297Z" style="fill:rgb(38,38,38);fill-rule:nonzero;"/>
                                <g id="ArialMT-463" serif:id="ArialMT-46" transform="matrix(1,0,0,1,55.6152,0)">
                                    <rect x="9.078" y="0" width="10.016" height="10.016" style="fill:rgb(38,38,38);fill-rule:nonzero;"/>
                                </g>
                                <g id="ArialMT-485" serif:id="ArialMT-48" transform="matrix(1,0,0,1,83.3984,0)">
                                    <path d="M4.156,35.297C4.156,43.766 5.026,50.578 6.766,55.734C8.505,60.901 11.089,64.88 14.516,67.672C17.953,70.474 22.276,71.875 27.484,71.875C31.328,71.875 34.698,71.099 37.594,69.547C40.49,68.005 42.88,65.776 44.766,62.859C46.661,59.953 48.146,56.406 49.219,52.219C50.292,48.042 50.828,42.401 50.828,35.297C50.828,26.901 49.964,20.125 48.234,14.969C46.516,9.813 43.938,5.823 40.5,3C37.073,0.188 32.734,-1.219 27.484,-1.219C20.589,-1.219 15.172,1.255 11.234,6.203C6.516,12.161 4.156,21.859 4.156,35.297ZM13.188,35.297C13.188,23.547 14.563,15.724 17.313,11.828C20.063,7.943 23.453,6 27.484,6C31.526,6 34.922,7.953 37.672,11.859C40.422,15.766 41.797,23.578 41.797,35.297C41.797,47.089 40.422,54.917 37.672,58.781C34.922,62.656 31.495,64.594 27.391,64.594C23.359,64.594 20.135,62.885 17.719,59.469C14.698,55.115 13.188,47.057 13.188,35.297Z" style="fill:rgb(38,38,38);fill-rule:nonzero;"/>
                                </g>
                                <g id="ArialMT-486" serif:id="ArialMT-48" transform="matrix(1,0,0,1,139.014,0)">
                                    <path d="M4.156,35.297C4.156,43.766 5.026,50.578 6.766,55.734C8.505,60.901 11.089,64.88 14.516,67.672C17.953,70.474 22.276,71.875 27.484,71.875C31.328,71.875 34.698,71.099 37.594,69.547C40.49,68.005 42.88,65.776 44.766,62.859C46.661,59.953 48.146,56.406 49.219,52.219C50.292,48.042 50.828,42.401 50.828,35.297C50.828,26.901 49.964,20.125 48.234,14.969C46.516,9.813 43.938,5.823 40.5,3C37.073,0.188 32.734,-1.219 27.484,-1.219C20.589,-1.219 15.172,1.255 11.234,6.203C6.516,12.161 4.156,21.859 4.156,35.297ZM13.188,35.297C13.188,23.547 14.563,15.724 17.313,11.828C20.063,7.943 23.453,6 27.484,6C31.526,6 34.922,7.953 37.672,11.859C40.422,15.766 41.797,23.578 41.797,35.297C41.797,47.089 40.422,54.917 37.672,58.781C34.922,62.656 31.495,64.594 27.391,64.594C23.359,64.594 20.135,62.885 17.719,59.469C14.698,55.115 13.188,47.057 13.188,35.297Z" style="fill:rgb(38,38,38);fill-rule:nonzero;"/>
                                </g>
                            </g>
                        </g>
                    </g>
                </g>
                <g id="ytick_5">
                    <g id="line2d_12">
                        <path d="M72,269.918L518.4,269.918" style="fill:none;fill-rule:nonzero;stroke:rgb(204,204,204);stroke-width:1px;"/>
                    </g>
                    <g transform="matrix(0.11,0,0,-0.11,41.093,273.855)">
                        <g id="text_12">
                            <g>
                                <path id="ArialMT-487" serif:id="ArialMT-48" d="M4.156,35.297C4.156,43.766 5.026,50.578 6.766,55.734C8.505,60.901 11.089,64.88 14.516,67.672C17.953,70.474 22.276,71.875 27.484,71.875C31.328,71.875 34.698,71.099 37.594,69.547C40.49,68.005 42.88,65.776 44.766,62.859C46.661,59.953 48.146,56.406 49.219,52.219C50.292,48.042 50.828,42.401 50.828,35.297C50.828,26.901 49.964,20.125 48.234,14.969C46.516,9.813 43.938,5.823 40.5,3C37.073,0.188 32.734,-1.219 27.484,-1.219C20.589,-1.219 15.172,1.255 11.234,6.203C6.516,12.161 4.156,21.859 4.156,35.297ZM13.188,35.297C13.188,23.547 14.563,15.724 17.313,11.828C20.063,7.943 23.453,6 27.484,6C31.526,6 34.922,7.953 37.672,11.859C40.422,15.766 41.797,23.578 41.797,35.297C41.797,47.089 40.422,54.917 37.672,58.781C34.922,62.656 31.495,64.594 27.391,64.594C23.359,64.594 20.135,62.885 17.719,59.469C14.698,55.115 13.188,47.057 13.188,35.297Z" style="fill:rgb(38,38,38);fill-rule:nonzero;"/>
                                <g id="ArialMT-464" serif:id="ArialMT-46" transform="matrix(1,0,0,1,55.6152,0)">
                                    <rect x="9.078" y="0" width="10.016" height="10.016" style="fill:rgb(38,38,38);fill-rule:nonzero;"/>
                                </g>
                                <g id="ArialMT-502" serif:id="ArialMT-50" transform="matrix(1,0,0,1,83.3984,0)">
                                    <path d="M50.344,8.453L50.344,0L3.031,0C2.969,2.115 3.307,4.151 4.047,6.109C5.255,9.328 7.182,12.5 9.828,15.625C12.484,18.75 16.323,22.365 21.344,26.469C29.125,32.844 34.38,37.896 37.109,41.625C39.849,45.354 41.219,48.88 41.219,52.203C41.219,55.682 39.969,58.615 37.469,61C34.979,63.396 31.734,64.594 27.734,64.594C23.505,64.594 20.12,63.323 17.578,60.781C15.036,58.25 13.75,54.74 13.719,50.25L4.688,51.172C5.302,57.911 7.625,63.047 11.656,66.578C15.698,70.109 21.125,71.875 27.938,71.875C34.802,71.875 40.234,69.969 44.234,66.156C48.245,62.354 50.25,57.635 50.25,52C50.25,49.135 49.661,46.318 48.484,43.547C47.318,40.786 45.375,37.875 42.656,34.813C39.938,31.75 35.422,27.552 29.109,22.219C23.828,17.792 20.438,14.786 18.938,13.203C17.448,11.63 16.214,10.047 15.234,8.453L50.344,8.453Z" style="fill:rgb(38,38,38);fill-rule:nonzero;"/>
                                </g>
                                <g id="ArialMT-534" serif:id="ArialMT-53" transform="matrix(1,0,0,1,139.014,0)">
                                    <path d="M4.156,18.75L13.375,19.531C14.063,15.042 15.651,11.661 18.141,9.391C20.63,7.13 23.635,6 27.156,6C31.385,6 34.964,7.594 37.891,10.781C40.818,13.979 42.281,18.214 42.281,23.484C42.281,28.495 40.875,32.448 38.063,35.344C35.25,38.25 31.563,39.703 27,39.703C24.167,39.703 21.609,39.057 19.328,37.766C17.057,36.484 15.271,34.818 13.969,32.766L5.719,33.844L12.641,70.609L48.25,70.609L48.25,62.203L19.672,62.203L15.828,42.969C20.12,45.969 24.625,47.469 29.344,47.469C35.594,47.469 40.865,45.302 45.156,40.969C49.458,36.635 51.609,31.068 51.609,24.266C51.609,17.786 49.724,12.188 45.953,7.469C41.359,1.677 35.094,-1.219 27.156,-1.219C20.646,-1.219 15.328,0.604 11.203,4.25C7.089,7.896 4.74,12.729 4.156,18.75Z" style="fill:rgb(38,38,38);fill-rule:nonzero;"/>
                                </g>
                            </g>
                        </g>
                    </g>
                </g>
                <g id="ytick_6">
                    <g id="line2d_13">
                        <path d="M72,214.744L518.4,214.744" style="fill:none;fill-rule:nonzero;stroke:rgb(204,204,204);stroke-width:1px;"/>
                    </g>
                    <g transform="matrix(0.11,0,0,-0.11,41.093,218.681)">
                        <g id="text_13">
                            <g>
                                <path id="ArialMT-488" serif:id="ArialMT-48" d="M4.156,35.297C4.156,43.766 5.026,50.578 6.766,55.734C8.505,60.901 11.089,64.88 14.516,67.672C17.953,70.474 22.276,71.875 27.484,71.875C31.328,71.875 34.698,71.099 37.594,69.547C40.49,68.005 42.88,65.776 44.766,62.859C46.661,59.953 48.146,56.406 49.219,52.219C50.292,48.042 50.828,42.401 50.828,35.297C50.828,26.901 49.964,20.125 48.234,14.969C46.516,9.813 43.938,5.823 40.5,3C37.073,0.188 32.734,-1.219 27.484,-1.219C20.589,-1.219 15.172,1.255 11.234,6.203C6.516,12.161 4.156,21.859 4.156,35.297ZM13.188,35.297C13.188,23.547 14.563,15.724 17.313,11.828C20.063,7.943 23.453,6 27.484,6C31.526,6 34.922,7.953 37.672,11.859C40.422,15.766 41.797,23.578 41.797,35.297C41.797,47.089 40.422,54.917 37.672,58.781C34.922,62.656 31.495,64.594 27.391,64.594C23.359,64.594 20.135,62.885 17.719,59.469C14.698,55.115 13.188,47.057 13.188,35.297Z" style="fill:rgb(38,38,38);fill-rule:nonzero;"/>
                                <g id="ArialMT-465" serif:id="ArialMT-46" transform="matrix(1,0,0,1,55.6152,0)">
                                    <rect x="9.078" y="0" width="10.016" height="10.016" style="fill:rgb(38,38,38);fill-rule:nonzero;"/>
                                </g>
                                <g id="ArialMT-535" serif:id="ArialMT-53" transform="matrix(1,0,0,1,83.3984,0)">
                                    <path d="M4.156,18.75L13.375,19.531C14.063,15.042 15.651,11.661 18.141,9.391C20.63,7.13 23.635,6 27.156,6C31.385,6 34.964,7.594 37.891,10.781C40.818,13.979 42.281,18.214 42.281,23.484C42.281,28.495 40.875,32.448 38.063,35.344C35.25,38.25 31.563,39.703 27,39.703C24.167,39.703 21.609,39.057 19.328,37.766C17.057,36.484 15.271,34.818 13.969,32.766L5.719,33.844L12.641,70.609L48.25,70.609L48.25,62.203L19.672,62.203L15.828,42.969C20.12,45.969 24.625,47.469 29.344,47.469C35.594,47.469 40.865,45.302 45.156,40.969C49.458,36.635 51.609,31.068 51.609,24.266C51.609,17.786 49.724,12.188 45.953,7.469C41.359,1.677 35.094,-1.219 27.156,-1.219C20.646,-1.219 15.328,0.604 11.203,4.25C7.089,7.896 4.74,12.729 4.156,18.75Z" style="fill:rgb(38,38,38);fill-rule:nonzero;"/>
                                </g>
                                <g id="ArialMT-489" serif:id="ArialMT-48" transform="matrix(1,0,0,1,139.014,0)">
                                    <path d="M4.156,35.297C4.156,43.766 5.026,50.578 6.766,55.734C8.505,60.901 11.089,64.88 14.516,67.672C17.953,70.474 22.276,71.875 27.484,71.875C31.328,71.875 34.698,71.099 37.594,69.547C40.49,68.005 42.88,65.776 44.766,62.859C46.661,59.953 48.146,56.406 49.219,52.219C50.292,48.042 50.828,42.401 50.828,35.297C50.828,26.901 49.964,20.125 48.234,14.969C46.516,9.813 43.938,5.823 40.5,3C37.073,0.188 32.734,-1.219 27.484,-1.219C20.589,-1.219 15.172,1.255 11.234,6.203C6.516,12.161 4.156,21.859 4.156,35.297ZM13.188,35.297C13.188,23.547 14.563,15.724 17.313,11.828C20.063,7.943 23.453,6 27.484,6C31.526,6 34.922,7.953 37.672,11.859C40.422,15.766 41.797,23.578 41.797,35.297C41.797,47.089 40.422,54.917 37.672,58.781C34.922,62.656 31.495,64.594 27.391,64.594C23.359,64.594 20.135,62.885 17.719,59.469C14.698,55.115 13.188,47.057 13.188,35.297Z" style="fill:rgb(38,38,38);fill-rule:nonzero;"/>
                                </g>
                            </g>
                        </g>
                    </g>
                </g>
                <g id="ytick_7">
                    <g id="line2d_14">
                        <path d="M72,159.57L518.4,159.57" style="fill:none;fill-rule:nonzero;stroke:rgb(204,204,204);stroke-width:1px;"/>
                    </g>
                    <g transform="matrix(0.11,0,0,-0.11,41.093,163.506)">
                        <g id="text_14">
                            <g>
                                <path id="ArialMT-4810" serif:id="ArialMT-48" d="M4.156,35.297C4.156,43.766 5.026,50.578 6.766,55.734C8.505,60.901 11.089,64.88 14.516,67.672C17.953,70.474 22.276,71.875 27.484,71.875C31.328,71.875 34.698,71.099 37.594,69.547C40.49,68.005 42.88,65.776 44.766,62.859C46.661,59.953 48.146,56.406 49.219,52.219C50.292,48.042 50.828,42.401 50.828,35.297C50.828,26.901 49.964,20.125 48.234,14.969C46.516,9.813 43.938,5.823 40.5,3C37.073,0.188 32.734,-1.219 27.484,-1.219C20.589,-1.219 15.172,1.255 11.234,6.203C6.516,12.161 4.156,21.859 4.156,35.297ZM13.188,35.297C13.188,23.547 14.563,15.724 17.313,11.828C20.063,7.943 23.453,6 27.484,6C31.526,6 34.922,7.953 37.672,11.859C40.422,15.766 41.797,23.578 41.797,35.297C41.797,47.089 40.422,54.917 37.672,58.781C34.922,62.656 31.495,64.594 27.391,64.594C23.359,64.594 20.135,62.885 17.719,59.469C14.698,55.115 13.188,47.057 13.188,35.297Z" style="fill:rgb(38,38,38);fill-rule:nonzero;"/>
                                <g id="ArialMT-466" serif:id="ArialMT-46" transform="matrix(1,0,0,1,55.6152,0)">
                                    <rect x="9.078" y="0" width="10.016" height="10.016" style="fill:rgb(38,38,38);fill-rule:nonzero;"/>
                                </g>
                                <g id="ArialMT-552" serif:id="ArialMT-55" transform="matrix(1,0,0,1,83.3984,0)">
                                    <path d="M4.734,62.203L4.734,70.656L51.078,70.656L51.078,63.813C46.516,58.969 41.995,52.526 37.516,44.484C33.047,36.443 29.594,28.172 27.156,19.672C25.396,13.682 24.271,7.125 23.781,0L14.75,0C14.844,5.635 15.948,12.438 18.063,20.406C20.177,28.385 23.214,36.078 27.172,43.484C31.13,50.891 35.339,57.13 39.797,62.203L4.734,62.203Z" style="fill:rgb(38,38,38);fill-rule:nonzero;"/>
                                </g>
                                <g id="ArialMT-536" serif:id="ArialMT-53" transform="matrix(1,0,0,1,139.014,0)">
                                    <path d="M4.156,18.75L13.375,19.531C14.063,15.042 15.651,11.661 18.141,9.391C20.63,7.13 23.635,6 27.156,6C31.385,6 34.964,7.594 37.891,10.781C40.818,13.979 42.281,18.214 42.281,23.484C42.281,28.495 40.875,32.448 38.063,35.344C35.25,38.25 31.563,39.703 27,39.703C24.167,39.703 21.609,39.057 19.328,37.766C17.057,36.484 15.271,34.818 13.969,32.766L5.719,33.844L12.641,70.609L48.25,70.609L48.25,62.203L19.672,62.203L15.828,42.969C20.12,45.969 24.625,47.469 29.344,47.469C35.594,47.469 40.865,45.302 45.156,40.969C49.458,36.635 51.609,31.068 51.609,24.266C51.609,17.786 49.724,12.188 45.953,7.469C41.359,1.677 35.094,-1.219 27.156,-1.219C20.646,-1.219 15.328,0.604 11.203,4.25C7.089,7.896 4.74,12.729 4.156,18.75Z" style="fill:rgb(38,38,38);fill-rule:nonzero;"/>
                                </g>
                            </g>
                        </g>
                    </g>
                </g>
                <g id="ytick_8">
                    <g id="line2d_15">
                        <path d="M72,104.395L518.4,104.395" style="fill:none;fill-rule:nonzero;stroke:rgb(204,204,204);stroke-width:1px;"/>
                    </g>
                    <g transform="matrix(0.11,0,0,-0.11,41.093,108.332)">
                        <g id="text_15">
                            <g>
                                <path id="ArialMT-491" serif:id="ArialMT-49" d="M37.25,0L28.469,0L28.469,56C26.354,53.99 23.578,51.974 20.141,49.953C16.703,47.932 13.62,46.417 10.891,45.406L10.891,53.906C15.807,56.219 20.104,59.016 23.781,62.297C27.458,65.589 30.063,68.781 31.594,71.875L37.25,71.875L37.25,0Z" style="fill:rgb(38,38,38);fill-rule:nonzero;"/>
                                <g id="ArialMT-467" serif:id="ArialMT-46" transform="matrix(1,0,0,1,55.6152,0)">
                                    <rect x="9.078" y="0" width="10.016" height="10.016" style="fill:rgb(38,38,38);fill-rule:nonzero;"/>
                                </g>
                                <g id="ArialMT-4811" serif:id="ArialMT-48" transform="matrix(1,0,0,1,83.3984,0)">
                                    <path d="M4.156,35.297C4.156,43.766 5.026,50.578 6.766,55.734C8.505,60.901 11.089,64.88 14.516,67.672C17.953,70.474 22.276,71.875 27.484,71.875C31.328,71.875 34.698,71.099 37.594,69.547C40.49,68.005 42.88,65.776 44.766,62.859C46.661,59.953 48.146,56.406 49.219,52.219C50.292,48.042 50.828,42.401 50.828,35.297C50.828,26.901 49.964,20.125 48.234,14.969C46.516,9.813 43.938,5.823 40.5,3C37.073,0.188 32.734,-1.219 27.484,-1.219C20.589,-1.219 15.172,1.255 11.234,6.203C6.516,12.161 4.156,21.859 4.156,35.297ZM13.188,35.297C13.188,23.547 14.563,15.724 17.313,11.828C20.063,7.943 23.453,6 27.484,6C31.526,6 34.922,7.953 37.672,11.859C40.422,15.766 41.797,23.578 41.797,35.297C41.797,47.089 40.422,54.917 37.672,58.781C34.922,62.656 31.495,64.594 27.391,64.594C23.359,64.594 20.135,62.885 17.719,59.469C14.698,55.115 13.188,47.057 13.188,35.297Z" style="fill:rgb(38,38,38);fill-rule:nonzero;"/>
                                </g>
                                <g id="ArialMT-4812" serif:id="ArialMT-48" transform="matrix(1,0,0,1,139.014,0)">
                                    <path d="M4.156,35.297C4.156,43.766 5.026,50.578 6.766,55.734C8.505,60.901 11.089,64.88 14.516,67.672C17.953,70.474 22.276,71.875 27.484,71.875C31.328,71.875 34.698,71.099 37.594,69.547C40.49,68.005 42.88,65.776 44.766,62.859C46.661,59.953 48.146,56.406 49.219,52.219C50.292,48.042 50.828,42.401 50.828,35.297C50.828,26.901 49.964,20.125 48.234,14.969C46.516,9.813 43.938,5.823 40.5,3C37.073,0.188 32.734,-1.219 27.484,-1.219C20.589,-1.219 15.172,1.255 11.234,6.203C6.516,12.161 4.156,21.859 4.156,35.297ZM13.188,35.297C13.188,23.547 14.563,15.724 17.313,11.828C20.063,7.943 23.453,6 27.484,6C31.526,6 34.922,7.953 37.672,11.859C40.422,15.766 41.797,23.578 41.797,35.297C41.797,47.089 40.422,54.917 37.672,58.781C34.922,62.656 31.495,64.594 27.391,64.594C23.359,64.594 20.135,62.885 17.719,59.469C14.698,55.115 13.188,47.057 13.188,35.297Z" style="fill:rgb(38,38,38);fill-rule:nonzero;"/>
                                </g>
                            </g>
                        </g>
                    </g>
                </g>
            </g>
            <g id="line2d_16">
                <path d="M92.291,325.093L159.927,381.116" style="fill:none;fill-rule:nonzero;stroke:rgb(26,26,26);stroke-width:21.9px;stroke-linecap:butt;"/>
            </g>
            <g id="line2d_17">
                <path d="M92.291,325.093L159.927,225.344" style="fill:none;fill-rule:nonzero;stroke:rgb(26,26,26);stroke-width:12.3px;stroke-linecap:butt;"/>
            </g>
            <g id="line2d_18">
                <path d="M159.927,381.116L227.564,447.764" style="fill:none;fill-rule:nonzero;stroke:rgb(26,26,26);stroke-width:13.2px;stroke-linecap:butt;"/>
            </g>
            <g id="line2d_19">
                <path d="M159.927,381.116L227.564,279.994" style="fill:none;fill-rule:nonzero;stroke:rgb(26,26,26);stroke-width:8.7px;stroke-linecap:butt;"/>
            </g>
            <g id="line2d_20">
                <path d="M159.927,225.344L227.564,225.344" style="fill:none;fill-rule:nonzero;stroke:rgb(26,26,26);stroke-width:12.3px;stroke-linecap:butt;"/>
            </g>
            <g id="line2d_21">
                <path d="M227.564,447.764L295.2,447.764" style="fill:none;fill-rule:nonzero;stroke:rgb(26,26,26);stroke-width:13.2px;stroke-linecap:butt;"/>
            </g>
            <g id="line2d_22">
                <path d="M227.564,279.994L295.2,279.994" style="fill:none;fill-rule:nonzero;stroke:rgb(26,26,26);stroke-width:8.7px;stroke-linecap:butt;"/>
            </g>
            <g id="line2d_23">
                <path d="M227.564,225.344L295.2,306.064" style="fill:none;fill-rule:nonzero;stroke:rgb(26,26,26);stroke-width:6.6px;stroke-linecap:butt;"/>
            </g>
            <g id="line2d_24">
                <path d="M227.564,225.344L295.2,131.88" style="fill:none;fill-rule:nonzero;stroke:rgb(26,26,26);stroke-width:5.7px;stroke-linecap:butt;"/>
            </g>
            <g id="line2d_25">
                <path d="M295.2,447.764L362.836,484.233" style="fill:none;fill-rule:nonzero;stroke:rgb(26,26,26);stroke-width:9.3px;stroke-linecap:butt;"/>
            </g>
            <g id="line2d_26">
                <path d="M295.2,447.764L362.836,333.888" style="fill:none;fill-rule:nonzero;stroke:rgb(26,26,26);stroke-width:3.9px;stroke-linecap:butt;"/>
            </g>
            <g id="line2d_27">
                <path d="M295.2,306.064L362.836,306.064" style="fill:none;fill-rule:nonzero;stroke:rgb(26,26,26);stroke-width:6.6px;stroke-linecap:butt;"/>
            </g>
            <g id="line2d_28">
                <path d="M295.2,279.994L362.836,333.888" style="fill:none;fill-rule:nonzero;stroke:rgb(26,26,26);stroke-width:2.2px;stroke-linecap:butt;"/>
            </g>
            <g id="line2d_29">
                <path d="M295.2,279.994L362.836,277.901" style="fill:none;fill-rule:nonzero;stroke:rgb(26,26,26);stroke-width:6.5px;stroke-linecap:butt;"/>
            </g>
            <g id="line2d_30">
                <path d="M295.2,131.88L362.836,131.88" style="fill:none;fill-rule:nonzero;stroke:rgb(26,26,26);stroke-width:5.7px;stroke-linecap:butt;"/>
            </g>
            <g id="line2d_31">
                <path d="M362.836,484.233L430.473,483.174" style="fill:none;fill-rule:nonzero;stroke:rgb(26,26,26);stroke-width:9px;stroke-linecap:butt;"/>
            </g>
            <g id="line2d_32">
                <path d="M362.836,484.233L430.473,372.607" style="fill:none;fill-rule:nonzero;stroke:rgb(26,26,26);stroke-width:0.3px;stroke-linecap:butt;"/>
            </g>
            <g id="line2d_33">
                <path d="M362.836,333.888L430.473,483.174" style="fill:none;fill-rule:nonzero;stroke:rgb(26,26,26);stroke-width:0.2px;stroke-linecap:butt;"/>
            </g>
            <g id="line2d_34">
                <path d="M362.836,333.888L430.473,328.681" style="fill:none;fill-rule:nonzero;stroke:rgb(26,26,26);stroke-width:5.9px;stroke-linecap:butt;"/>
            </g>
            <g id="line2d_35">
                <path d="M362.836,306.064L430.473,302.214" style="fill:none;fill-rule:nonzero;stroke:rgb(26,26,26);stroke-width:6.6px;stroke-linecap:butt;"/>
            </g>
            <g id="line2d_36">
                <path d="M362.836,277.901L430.473,372.607" style="fill:none;fill-rule:nonzero;stroke:rgb(26,26,26);stroke-width:2.7px;stroke-linecap:butt;"/>
            </g>
            <g id="line2d_37">
                <path d="M362.836,277.901L430.473,328.681" style="fill:none;fill-rule:nonzero;stroke:rgb(26,26,26);stroke-width:0.3px;stroke-linecap:butt;"/>
            </g>
            <g id="line2d_38">
                <path d="M362.836,277.901L430.473,213.027" style="fill:none;fill-rule:nonzero;stroke:rgb(26,26,26);stroke-width:3.5px;stroke-linecap:butt;"/>
            </g>
            <g id="line2d_39">
                <path d="M362.836,131.88L430.473,302.214" style="fill:none;fill-rule:nonzero;stroke:rgb(26,26,26);stroke-width:0.3px;stroke-linecap:butt;"/>
            </g>
            <g id="line2d_40">
                <path d="M362.836,131.88L430.473,127.122" style="fill:none;fill-rule:nonzero;stroke:rgb(26,26,26);stroke-width:5.4px;stroke-linecap:butt;"/>
            </g>
            <g id="line2d_41">
                <path d="M430.473,483.174L498.109,484.233" style="fill:none;fill-rule:nonzero;stroke:rgb(26,26,26);stroke-width:9px;stroke-linecap:butt;"/>
            </g>
            <g id="line2d_42">
                <path d="M430.473,483.174L498.109,333.888" style="fill:none;fill-rule:nonzero;stroke:rgb(26,26,26);stroke-width:0.2px;stroke-linecap:butt;"/>
            </g>
            <g id="line2d_43">
                <path d="M430.473,372.607L498.109,484.233" style="fill:none;fill-rule:nonzero;stroke:rgb(26,26,26);stroke-width:0.3px;stroke-linecap:butt;"/>
            </g>
            <g id="line2d_44">
                <path d="M430.473,372.607L498.109,349.611" style="fill:none;fill-rule:nonzero;stroke:rgb(26,26,26);stroke-width:2.7px;stroke-linecap:butt;"/>
            </g>
            <g id="line2d_45">
                <path d="M430.473,328.681L498.109,349.611" style="fill:none;fill-rule:nonzero;stroke:rgb(26,26,26);stroke-width:0.3px;stroke-linecap:butt;"/>
            </g>
            <g id="line2d_46">
                <path d="M430.473,328.681L498.109,333.888" style="fill:none;fill-rule:nonzero;stroke:rgb(26,26,26);stroke-width:5.9px;stroke-linecap:butt;"/>
            </g>
            <g id="line2d_47">
                <path d="M430.473,302.214L498.109,324.789" style="fill:none;fill-rule:nonzero;stroke:rgb(26,26,26);stroke-width:5.2px;stroke-linecap:butt;"/>
            </g>
            <g id="line2d_48">
                <path d="M430.473,302.214L498.109,207.765" style="fill:none;fill-rule:nonzero;stroke:rgb(26,26,26);stroke-width:1.7px;stroke-linecap:butt;"/>
            </g>
            <g id="line2d_49">
                <path d="M430.473,213.027L498.109,349.611" style="fill:none;fill-rule:nonzero;stroke:rgb(26,26,26);stroke-width:0.2px;stroke-linecap:butt;"/>
            </g>
            <g id="line2d_50">
                <path d="M430.473,213.027L498.109,208.365" style="fill:none;fill-rule:nonzero;stroke:rgb(26,26,26);stroke-width:3.3px;stroke-linecap:butt;"/>
            </g>
            <g id="line2d_51">
                <path d="M430.473,127.122L498.109,207.765" style="fill:none;fill-rule:nonzero;stroke:rgb(26,26,26);stroke-width:2.1px;stroke-linecap:butt;"/>
            </g>
            <g id="line2d_52">
                <path d="M430.473,127.122L498.109,88.887" style="fill:none;fill-rule:nonzero;stroke:rgb(26,26,26);stroke-width:3.3px;stroke-linecap:butt;"/>
            </g>
            <g transform="matrix(1,0,0,1,92.2909,325.093)">
                <g id="PathCollection_1">
                    <g>
                        <path id="mccda37b8f8" d="M0,9.247C2.452,9.247 4.804,8.272 6.538,6.538C8.272,4.804 9.247,2.452 9.247,0C9.247,-2.452 8.272,-4.804 6.538,-6.538C4.804,-8.272 2.452,-9.247 0,-9.247C-2.452,-9.247 -4.804,-8.272 -6.538,-6.538C-8.272,-4.804 -9.247,-2.452 -9.247,0C-9.247,2.452 -8.272,4.804 -6.538,6.538C-4.804,8.272 -2.452,9.247 0,9.247Z" style="fill:rgb(196,78,82);fill-rule:nonzero;stroke:white;stroke-width:2px;stroke-linecap:butt;"/>
                    </g>
                </g>
            </g>
            <g id="PathCollection_2">
                <path d="M159.927,388.515C161.89,388.515 163.772,387.736 165.159,386.348C166.547,384.961 167.327,383.078 167.327,381.116C167.327,379.154 166.547,377.271 165.159,375.884C163.772,374.496 161.89,373.717 159.927,373.717C157.965,373.717 156.083,374.496 154.695,375.884C153.308,377.271 152.528,379.154 152.528,381.116C152.528,383.078 153.308,384.961 154.695,386.348C156.083,387.736 157.965,388.515 159.927,388.515Z" style="fill:rgb(196,78,82);fill-rule:nonzero;stroke:white;stroke-width:2px;stroke-linecap:butt;"/>
                <path d="M159.927,230.89C161.398,230.89 162.808,230.305 163.848,229.265C164.888,228.226 165.473,226.815 165.473,225.344C165.473,223.874 164.888,222.463 163.848,221.423C162.808,220.383 161.398,219.799 159.927,219.799C158.457,219.799 157.046,220.383 156.006,221.423C154.966,222.463 154.382,223.874 154.382,225.344C154.382,226.815 154.966,228.226 156.006,229.265C157.046,230.305 158.457,230.89 159.927,230.89Z" style="fill:rgb(196,78,82);fill-rule:nonzero;stroke:white;stroke-width:2px;stroke-linecap:butt;"/>
            </g>
            <g id="PathCollection_3">
                <path d="M227.564,453.509C229.087,453.509 230.548,452.904 231.626,451.826C232.703,450.749 233.308,449.288 233.308,447.764C233.308,446.241 232.703,444.78 231.626,443.702C230.548,442.625 229.087,442.02 227.564,442.02C226.04,442.02 224.579,442.625 223.502,443.702C222.424,444.78 221.819,446.241 221.819,447.764C221.819,449.288 222.424,450.749 223.502,451.826C224.579,452.904 226.04,453.509 227.564,453.509Z" style="fill:rgb(196,78,82);fill-rule:nonzero;stroke:white;stroke-width:2px;stroke-linecap:butt;"/>
                <path d="M227.564,230.89C229.034,230.89 230.445,230.305 231.485,229.265C232.525,228.226 233.109,226.815 233.109,225.344C233.109,223.874 232.525,222.463 231.485,221.423C230.445,220.383 229.034,219.799 227.564,219.799C226.093,219.799 224.682,220.383 223.643,221.423C222.603,222.463 222.018,223.874 222.018,225.344C222.018,226.815 222.603,228.226 223.643,229.265C224.682,230.305 226.093,230.89 227.564,230.89Z" style="fill:rgb(196,78,82);fill-rule:nonzero;stroke:white;stroke-width:2px;stroke-linecap:butt;"/>
                <path d="M227.564,284.658C228.8,284.658 229.987,284.167 230.861,283.292C231.736,282.418 232.227,281.231 232.227,279.994C232.227,278.758 231.736,277.571 230.861,276.697C229.987,275.822 228.8,275.331 227.564,275.331C226.327,275.331 225.14,275.822 224.266,276.697C223.391,277.571 222.9,278.758 222.9,279.994C222.9,281.231 223.391,282.418 224.266,283.292C225.14,284.167 226.327,284.658 227.564,284.658Z" style="fill:rgb(196,78,82);fill-rule:nonzero;stroke:white;stroke-width:2px;stroke-linecap:butt;"/>
            </g>
            <g id="PathCollection_4">
                <path d="M295.2,453.509C296.723,453.509 298.185,452.904 299.262,451.826C300.339,450.749 300.945,449.288 300.945,447.764C300.945,446.241 300.339,444.78 299.262,443.702C298.185,442.625 296.723,442.02 295.2,442.02C293.677,442.02 292.215,442.625 291.138,443.702C290.061,444.78 289.455,446.241 289.455,447.764C289.455,449.288 290.061,450.749 291.138,451.826C292.215,452.904 293.677,453.509 295.2,453.509Z" style="fill:rgb(196,78,82);fill-rule:nonzero;stroke:white;stroke-width:2px;stroke-linecap:butt;"/>
                <path d="M295.2,284.658C296.437,284.658 297.623,284.167 298.498,283.292C299.372,282.418 299.864,281.231 299.864,279.994C299.864,278.758 299.372,277.571 298.498,276.697C297.623,275.822 296.437,275.331 295.2,275.331C293.963,275.331 292.777,275.822 291.902,276.697C291.028,277.571 290.536,278.758 290.536,279.994C290.536,281.231 291.028,282.418 291.902,283.292C292.777,284.167 293.963,284.658 295.2,284.658Z" style="fill:rgb(196,78,82);fill-rule:nonzero;stroke:white;stroke-width:2px;stroke-linecap:butt;"/>
                <path d="M295.2,310.126C296.277,310.126 297.311,309.698 298.072,308.936C298.834,308.174 299.262,307.141 299.262,306.064C299.262,304.987 298.834,303.953 298.072,303.192C297.311,302.43 296.277,302.002 295.2,302.002C294.123,302.002 293.089,302.43 292.328,303.192C291.566,303.953 291.138,304.987 291.138,306.064C291.138,307.141 291.566,308.174 292.328,308.936C293.089,309.698 294.123,310.126 295.2,310.126Z" style="fill:rgb(196,78,82);fill-rule:nonzero;stroke:white;stroke-width:2px;stroke-linecap:butt;"/>
                <path d="M295.2,135.655C296.201,135.655 297.161,135.257 297.869,134.549C298.577,133.841 298.975,132.881 298.975,131.88C298.975,130.879 298.577,129.918 297.869,129.21C297.161,128.503 296.201,128.105 295.2,128.105C294.199,128.105 293.239,128.503 292.531,129.21C291.823,129.918 291.425,130.879 291.425,131.88C291.425,132.881 291.823,133.841 292.531,134.549C293.239,135.257 294.199,135.655 295.2,135.655Z" style="fill:rgb(196,78,82);fill-rule:nonzero;stroke:white;stroke-width:2px;stroke-linecap:butt;"/>
            </g>
            <g id="PathCollection_5">
                <path d="M362.836,489.055C364.115,489.055 365.342,488.546 366.246,487.642C367.15,486.738 367.658,485.511 367.658,484.233C367.658,482.954 367.15,481.727 366.246,480.823C365.342,479.919 364.115,479.411 362.836,479.411C361.558,479.411 360.331,479.919 359.427,480.823C358.523,481.727 358.015,482.954 358.015,484.233C358.015,485.511 358.523,486.738 359.427,487.642C360.331,488.546 361.558,489.055 362.836,489.055Z" style="fill:rgb(196,78,82);fill-rule:nonzero;stroke:white;stroke-width:2px;stroke-linecap:butt;"/>
                <path d="M362.836,310.126C363.914,310.126 364.947,309.698 365.709,308.936C366.47,308.174 366.898,307.141 366.898,306.064C366.898,304.987 366.47,303.953 365.709,303.192C364.947,302.43 363.914,302.002 362.836,302.002C361.759,302.002 360.726,302.43 359.964,303.192C359.202,303.953 358.774,304.987 358.774,306.064C358.774,307.141 359.202,308.174 359.964,308.936C360.726,309.698 361.759,310.126 362.836,310.126Z" style="fill:rgb(196,78,82);fill-rule:nonzero;stroke:white;stroke-width:2px;stroke-linecap:butt;"/>
                <path d="M362.836,281.933C363.905,281.933 364.931,281.508 365.687,280.752C366.443,279.996 366.867,278.971 366.867,277.901C366.867,276.832 366.443,275.807 365.687,275.051C364.931,274.295 363.905,273.87 362.836,273.87C361.767,273.87 360.742,274.295 359.986,275.051C359.23,275.807 358.805,276.832 358.805,277.901C358.805,278.971 359.23,279.996 359.986,280.752C360.742,281.508 361.767,281.933 362.836,281.933Z" style="fill:rgb(196,78,82);fill-rule:nonzero;stroke:white;stroke-width:2px;stroke-linecap:butt;"/>
                <path d="M362.836,337.793C363.872,337.793 364.865,337.382 365.598,336.649C366.33,335.917 366.741,334.924 366.741,333.888C366.741,332.852 366.33,331.859 365.598,331.127C364.865,330.394 363.872,329.983 362.836,329.983C361.801,329.983 360.807,330.394 360.075,331.127C359.343,331.859 358.931,332.852 358.931,333.888C358.931,334.924 359.343,335.917 360.075,336.649C360.807,337.382 361.801,337.793 362.836,337.793Z" style="fill:rgb(196,78,82);fill-rule:nonzero;stroke:white;stroke-width:2px;stroke-linecap:butt;"/>
                <path d="M362.836,135.655C363.837,135.655 364.798,135.257 365.506,134.549C366.214,133.841 366.611,132.881 366.611,131.88C366.611,130.879 366.214,129.918 365.506,129.21C364.798,128.503 363.837,128.105 362.836,128.105C361.835,128.105 360.875,128.503 360.167,129.21C359.459,129.918 359.061,130.879 359.061,131.88C359.061,132.881 359.459,133.841 360.167,134.549C360.875,135.257 361.835,135.655 362.836,135.655Z" style="fill:rgb(196,78,82);fill-rule:nonzero;stroke:white;stroke-width:2px;stroke-linecap:butt;"/>
            </g>
            <g id="PathCollection_6">
                <path d="M430.473,487.97C431.745,487.97 432.965,487.464 433.864,486.565C434.763,485.666 435.269,484.446 435.269,483.174C435.269,481.902 434.763,480.682 433.864,479.783C432.965,478.883 431.745,478.378 430.473,478.378C429.201,478.378 427.981,478.883 427.082,479.783C426.182,480.682 425.677,481.902 425.677,483.174C425.677,484.446 426.182,485.666 427.082,486.565C427.981,487.464 429.201,487.97 430.473,487.97Z" style="fill:rgb(196,78,82);fill-rule:nonzero;stroke:white;stroke-width:2px;stroke-linecap:butt;"/>
                <path d="M430.473,306.368C431.574,306.368 432.631,305.93 433.41,305.151C434.188,304.372 434.626,303.316 434.626,302.214C434.626,301.113 434.188,300.056 433.41,299.278C432.631,298.499 431.574,298.061 430.473,298.061C429.371,298.061 428.315,298.499 427.536,299.278C426.757,300.056 426.319,301.113 426.319,302.214C426.319,303.316 426.757,304.372 427.536,305.151C428.315,305.93 429.371,306.368 430.473,306.368Z" style="fill:rgb(196,78,82);fill-rule:nonzero;stroke:white;stroke-width:2px;stroke-linecap:butt;"/>
                <path d="M430.473,332.618C431.517,332.618 432.518,332.203 433.257,331.465C433.995,330.727 434.41,329.725 434.41,328.681C434.41,327.637 433.995,326.636 433.257,325.897C432.518,325.159 431.517,324.744 430.473,324.744C429.429,324.744 428.427,325.159 427.689,325.897C426.951,326.636 426.536,327.637 426.536,328.681C426.536,329.725 426.951,330.727 427.689,331.465C428.427,332.203 429.429,332.618 430.473,332.618Z" style="fill:rgb(196,78,82);fill-rule:nonzero;stroke:white;stroke-width:2px;stroke-linecap:butt;"/>
                <path d="M430.473,130.796C431.447,130.796 432.382,130.409 433.071,129.72C433.76,129.031 434.147,128.096 434.147,127.122C434.147,126.147 433.76,125.212 433.071,124.523C432.382,123.834 431.447,123.447 430.473,123.447C429.498,123.447 428.564,123.834 427.875,124.523C427.186,125.212 426.798,126.147 426.798,127.122C426.798,128.096 427.186,129.031 427.875,129.72C428.564,130.409 429.498,130.796 430.473,130.796Z" style="fill:rgb(196,78,82);fill-rule:nonzero;stroke:white;stroke-width:2px;stroke-linecap:butt;"/>
                <path d="M430.473,215.985C431.257,215.985 432.01,215.673 432.564,215.119C433.119,214.564 433.431,213.811 433.431,213.027C433.431,212.242 433.119,211.49 432.564,210.935C432.01,210.381 431.257,210.069 430.473,210.069C429.688,210.069 428.936,210.381 428.381,210.935C427.826,211.49 427.515,212.242 427.515,213.027C427.515,213.811 427.826,214.564 428.381,215.119C428.936,215.673 429.688,215.985 430.473,215.985Z" style="fill:rgb(196,78,82);fill-rule:nonzero;stroke:white;stroke-width:2px;stroke-linecap:butt;"/>
                <path d="M430.473,375.346C431.199,375.346 431.896,375.057 432.409,374.544C432.923,374.03 433.211,373.334 433.211,372.607C433.211,371.881 432.923,371.184 432.409,370.671C431.896,370.157 431.199,369.869 430.473,369.869C429.746,369.869 429.05,370.157 428.536,370.671C428.023,371.184 427.734,371.881 427.734,372.607C427.734,373.334 428.023,374.03 428.536,374.544C429.05,375.057 429.746,375.346 430.473,375.346Z" style="fill:rgb(196,78,82);fill-rule:nonzero;stroke:white;stroke-width:2px;stroke-linecap:butt;"/>
            </g>
            <g id="PathCollection_7">
                <path d="M498.109,489.055C499.388,489.055 500.614,488.546 501.519,487.642C502.423,486.738 502.931,485.511 502.931,484.233C502.931,482.954 502.423,481.727 501.519,480.823C500.614,479.919 499.388,479.411 498.109,479.411C496.83,479.411 495.604,479.919 494.7,480.823C493.795,481.727 493.287,482.954 493.287,484.233C493.287,485.511 493.795,486.738 494.7,487.642C495.604,488.546 496.83,489.055 498.109,489.055Z" style="fill:rgb(196,78,82);fill-rule:nonzero;stroke:white;stroke-width:2px;stroke-linecap:butt;"/>
                <path d="M498.109,337.793C499.145,337.793 500.138,337.382 500.87,336.649C501.603,335.917 502.014,334.924 502.014,333.888C502.014,332.852 501.603,331.859 500.87,331.127C500.138,330.394 499.145,329.983 498.109,329.983C497.073,329.983 496.08,330.394 495.348,331.127C494.615,331.859 494.204,332.852 494.204,333.888C494.204,334.924 494.615,335.917 495.348,336.649C496.08,337.382 497.073,337.793 498.109,337.793Z" style="fill:rgb(196,78,82);fill-rule:nonzero;stroke:white;stroke-width:2px;stroke-linecap:butt;"/>
                <path d="M498.109,328.394C499.065,328.394 499.982,328.014 500.659,327.338C501.335,326.662 501.715,325.745 501.715,324.789C501.715,323.832 501.335,322.915 500.659,322.239C499.982,321.563 499.065,321.183 498.109,321.183C497.153,321.183 496.236,321.563 495.56,322.239C494.883,322.915 494.504,323.832 494.504,324.789C494.504,325.745 494.883,326.662 495.56,327.338C496.236,328.014 497.153,328.394 498.109,328.394Z" style="fill:rgb(196,78,82);fill-rule:nonzero;stroke:white;stroke-width:2px;stroke-linecap:butt;"/>
                <path d="M498.109,210.847C498.927,210.847 499.711,210.522 500.289,209.944C500.867,209.366 501.191,208.582 501.191,207.765C501.191,206.948 500.867,206.164 500.289,205.586C499.711,205.008 498.927,204.683 498.109,204.683C497.292,204.683 496.508,205.008 495.93,205.586C495.352,206.164 495.027,206.948 495.027,207.765C495.027,208.582 495.352,209.366 495.93,209.944C496.508,210.522 497.292,210.847 498.109,210.847Z" style="fill:rgb(196,78,82);fill-rule:nonzero;stroke:white;stroke-width:2px;stroke-linecap:butt;"/>
                <path d="M498.109,211.237C498.871,211.237 499.601,210.934 500.14,210.396C500.679,209.857 500.981,209.126 500.981,208.365C500.981,207.603 500.679,206.872 500.14,206.334C499.601,205.795 498.871,205.492 498.109,205.492C497.347,205.492 496.617,205.795 496.078,206.334C495.539,206.872 495.237,207.603 495.237,208.365C495.237,209.126 495.539,209.857 496.078,210.396C496.617,210.934 497.347,211.237 498.109,211.237Z" style="fill:rgb(196,78,82);fill-rule:nonzero;stroke:white;stroke-width:2px;stroke-linecap:butt;"/>
                <path d="M498.109,91.76C498.871,91.76 499.601,91.457 500.14,90.918C500.679,90.38 500.981,89.649 500.981,88.887C500.981,88.126 500.679,87.395 500.14,86.856C499.601,86.318 498.871,86.015 498.109,86.015C497.347,86.015 496.617,86.318 496.078,86.856C495.539,87.395 495.237,88.126 495.237,88.887C495.237,89.649 495.539,90.38 496.078,90.918C496.617,91.457 497.347,91.76 498.109,91.76Z" style="fill:rgb(196,78,82);fill-rule:nonzero;stroke:white;stroke-width:2px;stroke-linecap:butt;"/>
                <path d="M498.109,352.44C498.859,352.44 499.579,352.142 500.109,351.611C500.639,351.081 500.938,350.361 500.938,349.611C500.938,348.861 500.639,348.142 500.109,347.611C499.579,347.081 498.859,346.783 498.109,346.783C497.359,346.783 496.639,347.081 496.109,347.611C495.579,348.142 495.281,348.861 495.281,349.611C495.281,350.361 495.579,351.081 496.109,351.611C496.639,352.142 497.359,352.44 498.109,352.44Z" style="fill:rgb(196,78,82);fill-rule:nonzero;stroke:white;stroke-width:2px;stroke-linecap:butt;"/>
            </g>
            <g id="patch_3">
                <path d="M72,504L72,69.12" style="fill:none;fill-rule:nonzero;stroke:rgb(204,204,204);stroke-width:1.25px;stroke-linecap:square;"/>
            </g>
            <g id="patch_4">
                <path d="M518.4,504L518.4,69.12" style="fill:none;fill-rule:nonzero;stroke:rgb(204,204,204);stroke-width:1.25px;stroke-linecap:square;"/>
            </g>
            <g id="patch_5">
                <path d="M72,504L518.4,504" style="fill:none;fill-rule:nonzero;stroke:rgb(204,204,204);stroke-width:1.25px;stroke-linecap:square;"/>
            </g>
            <g id="patch_6">
                <path d="M72,69.12L518.4,69.12" style="fill:none;fill-rule:nonzero;stroke:rgb(204,204,204);stroke-width:1.25px;stroke-linecap:square;"/>
            </g>
        </g>
    </g>
</svg>
